<svg xmlns="http://www.w3.org/2000/svg" width="1972.3468017578125" height="639.3125" viewBox="-976.265625 -445.33001708984375 1972.3468017578125 639.3125"><title>Neo4j Graph Visualization</title><desc>Created using Neo4j (http://www.neo4j.com/)</desc><g class="layer relationships"><g class="relationship" transform="translate(-506.294387265287 -63.87043849148764) rotate(410.8297634477932)"><path class="b-outline" fill="#A5ABB6" stroke="none" d="M 40 0.5 L 42.45686310636988 0.5 L 42.45686310636988 -0.5 L 40 -0.5 Z M 102.71858185636988 0.5 L 105.17544496273976 0.5 L 105.17544496273976 3.5 L 112.17544496273976 0 L 105.17544496273976 -3.5 L 105.17544496273976 -0.5 L 102.71858185636988 -0.5 Z"/><text text-anchor="middle" pointer-events="none" font-size="8px" fill="#000000" x="72.58772248136988" y="3" font-family="Helvetica Neue, Helvetica, Arial, sans-serif">ds__hasOutput</text></g><g class="relationship" transform="translate(-506.294387265287 -63.87043849148764) rotate(199.3551070690333)"><path class="b-outline" fill="#A5ABB6" stroke="none" d="M 40 0.5 L 56.71409598577314 0.5 L 56.71409598577314 -0.5 L 40 -0.5 Z M 110.75315848577314 0.5 L 127.46725447154628 0.5 L 127.46725447154628 3.5 L 134.46725447154628 0 L 127.46725447154628 -3.5 L 127.46725447154628 -0.5 L 110.75315848577314 -0.5 Z"/><text text-anchor="middle" pointer-events="none" font-size="8px" fill="#000000" x="83.73362723577314" y="3" transform="rotate(180 83.73362723577314 0)" font-family="Helvetica Neue, Helvetica, Arial, sans-serif">ds__hasInput</text></g><g class="relationship" transform="translate(-506.294387265287 -63.87043849148764) rotate(272.0849703559931)"><path class="b-outline" fill="#A5ABB6" stroke="none" d="M 40 0.5 L 45.693866076305945 0.5 L 45.693866076305945 -0.5 L 40 -0.5 Z M 45.693866076305945 0.5 L 51.38773215261189 0.5 L 51.38773215261189 3.5 L 58.38773215261189 0 L 51.38773215261189 -3.5 L 51.38773215261189 -0.5 L 45.693866076305945 -0.5 Z"/><text text-anchor="middle" pointer-events="none" font-size="8px" fill="#000000" x="45.693866076305945" y="3" font-family="Helvetica Neue, Helvetica, Arial, sans-serif"/></g><g class="relationship" transform="translate(-506.294387265287 -63.87043849148764) rotate(222.9715124497249)"><path class="b-outline" fill="#A5ABB6" stroke="none" d="M 40 0.5 L 81.84397621856552 0.5 L 81.84397621856552 -0.5 L 40 -0.5 Z M 135.8830387185655 0.5 L 177.72701493713103 0.5 L 177.72701493713103 3.5 L 184.72701493713103 0 L 177.72701493713103 -3.5 L 177.72701493713103 -0.5 L 135.8830387185655 -0.5 Z"/><text text-anchor="middle" pointer-events="none" font-size="8px" fill="#000000" x="108.86350746856552" y="3" transform="rotate(180 108.86350746856552 0)" font-family="Helvetica Neue, Helvetica, Arial, sans-serif">ds__hasInput</text></g><g class="relationship" transform="translate(-506.294387265287 -63.87043849148764) rotate(525.2431925978974)"><path class="b-outline" fill="#A5ABB6" stroke="none" d="M 40 0.5 L 51.9181241575414 0.5 L 51.9181241575414 -0.5 L 40 -0.5 Z M 105.9571866575414 0.5 L 117.8753108150828 0.5 L 117.8753108150828 3.5 L 124.8753108150828 0 L 117.8753108150828 -3.5 L 117.8753108150828 -0.5 L 105.9571866575414 -0.5 Z"/><text text-anchor="middle" pointer-events="none" font-size="8px" fill="#000000" x="78.9376554075414" y="3" transform="rotate(180 78.9376554075414 0)" font-family="Helvetica Neue, Helvetica, Arial, sans-serif">ds__hasInput</text></g><g class="relationship" transform="translate(-507.91258608288956 115.99756977315019) rotate(270.51545276029344)"><path class="b-outline" fill="#A5ABB6" stroke="none" d="M 40 0.5 L 51.64272175171105 0.5 L 51.64272175171105 -0.5 L 40 -0.5 Z M 121.23256550171105 0.5 L 132.8752872534221 0.5 L 132.8752872534221 3.5 L 139.8752872534221 0 L 132.8752872534221 -3.5 L 132.8752872534221 -0.5 L 121.23256550171105 -0.5 Z"/><text text-anchor="middle" pointer-events="none" font-size="8px" fill="#000000" x="86.43764362671105" y="3" font-family="Helvetica Neue, Helvetica, Arial, sans-serif">ds__hasStartTask</text></g><g class="relationship" transform="translate(-506.294387265287 -63.87043849148764) rotate(236.28153038586538)"><path class="b-outline" fill="#A5ABB6" stroke="none" d="M 40 0.5 L 117.09108429993094 0.5 L 117.09108429993094 -0.5 L 40 -0.5 Z M 171.13014679993094 0.5 L 248.22123109986188 0.5 L 248.22123109986188 3.5 L 255.22123109986188 0 L 248.22123109986188 -3.5 L 248.22123109986188 -0.5 L 171.13014679993094 -0.5 Z"/><text text-anchor="middle" pointer-events="none" font-size="8px" fill="#000000" x="144.11061554993094" y="3" transform="rotate(180 144.11061554993094 0)" font-family="Helvetica Neue, Helvetica, Arial, sans-serif">ds__hasInput</text></g><g class="relationship" transform="translate(-506.294387265287 -63.87043849148764) rotate(360.3813677536167)"><path class="b-outline" fill="#A5ABB6" stroke="none" d="M 40 0.5 L 50.606021564077025 0.5 L 50.606021564077025 -0.5 L 40 -0.5 Z M 119.75055281407703 0.5 L 130.35657437815405 0.5 L 130.35657437815405 3.5 L 137.35657437815405 0 L 130.35657437815405 -3.5 L 130.35657437815405 -0.5 L 119.75055281407703 -0.5 Z"/><text text-anchor="middle" pointer-events="none" font-size="8px" fill="#000000" x="85.17828718907703" y="3" font-family="Helvetica Neue, Helvetica, Arial, sans-serif">ds__hasNextTask</text></g><g class="relationship" transform="translate(-506.294387265287 -63.87043849148764) rotate(499.59349611538323)"><path class="b-outline" fill="#A5ABB6" stroke="none" d="M 40 0.5 L 78.75058066902386 0.5 L 78.75058066902386 -0.5 L 40 -0.5 Z M 132.78964316902386 0.5 L 171.54022383804772 0.5 L 171.54022383804772 3.5 L 178.54022383804772 0 L 171.54022383804772 -3.5 L 171.54022383804772 -0.5 L 132.78964316902386 -0.5 Z"/><text text-anchor="middle" pointer-events="none" font-size="8px" fill="#000000" x="105.77011191902386" y="3" transform="rotate(180 105.77011191902386 0)" font-family="Helvetica Neue, Helvetica, Arial, sans-serif">ds__hasInput</text></g><g class="relationship" transform="translate(956.0811993695356 -45.27319586281203) rotate(268.96018142776603)"><path class="b-outline" fill="#A5ABB6" stroke="none" d="M 40 0.5 L 45.61533547196325 0.5 L 45.61533547196325 -0.5 L 40 -0.5 Z M 45.61533547196325 0.5 L 51.2306709439265 0.5 L 51.2306709439265 3.5 L 58.2306709439265 0 L 51.2306709439265 -3.5 L 51.2306709439265 -0.5 L 45.61533547196325 -0.5 Z"/><text text-anchor="middle" pointer-events="none" font-size="8px" fill="#000000" x="45.61533547196325" y="3" transform="rotate(180 45.61533547196325 0)" font-family="Helvetica Neue, Helvetica, Arial, sans-serif"/></g><g class="relationship" transform="translate(788.0947992041247 -46.11053516775314) rotate(272.6800814994334)"><path class="b-outline" fill="#A5ABB6" stroke="none" d="M 40 0.5 L 45.59124694592446 0.5 L 45.59124694592446 -0.5 L 40 -0.5 Z M 45.59124694592446 0.5 L 51.18249389184892 0.5 L 51.18249389184892 3.5 L 58.18249389184892 0 L 51.18249389184892 -3.5 L 51.18249389184892 -0.5 L 45.59124694592446 -0.5 Z"/><text text-anchor="middle" pointer-events="none" font-size="8px" fill="#000000" x="45.59124694592446" y="3" font-family="Helvetica Neue, Helvetica, Arial, sans-serif"/></g><g class="relationship" transform="translate(-328.94174167305846 -62.68994004122837) rotate(363.13727154602725)"><path class="b-outline" fill="#A5ABB6" stroke="none" d="M 40 0.5 L 149.74834267941634 0.5 L 149.74834267941634 -0.5 L 40 -0.5 Z M 218.89287392941634 0.5 L 328.6412166088327 0.5 L 328.6412166088327 3.5 L 335.6412166088327 0 L 328.6412166088327 -3.5 L 328.6412166088327 -0.5 L 218.89287392941634 -0.5 Z"/><text text-anchor="middle" pointer-events="none" font-size="8px" fill="#000000" x="184.32060830441634" y="3" font-family="Helvetica Neue, Helvetica, Arial, sans-serif">ds__hasNextTask</text></g><g class="relationship" transform="translate(46.136494000218704 -42.13171201482692) rotate(267.7157064727476)"><path class="b-outline" fill="#A5ABB6" stroke="none" d="M 40 0.5 L 45.12902634114053 0.5 L 45.12902634114053 -0.5 L 40 -0.5 Z M 45.12902634114053 0.5 L 50.25805268228106 0.5 L 50.25805268228106 3.5 L 57.25805268228106 0 L 50.25805268228106 -3.5 L 50.25805268228106 -0.5 L 45.12902634114053 -0.5 Z"/><text text-anchor="middle" pointer-events="none" font-size="8px" fill="#000000" x="45.12902634114053" y="3" transform="rotate(180 45.12902634114053 0)" font-family="Helvetica Neue, Helvetica, Arial, sans-serif"/></g><g class="relationship" transform="translate(46.136494000218704 -42.13171201482692) rotate(420.0254335727917)"><path class="b-outline" fill="#A5ABB6" stroke="none" d="M 40 0.5 L 78.21058170088267 0.5 L 78.21058170088267 -0.5 L 40 -0.5 Z M 138.47230045088267 0.5 L 176.68288215176534 0.5 L 176.68288215176534 3.5 L 183.68288215176534 0 L 176.68288215176534 -3.5 L 176.68288215176534 -0.5 L 138.47230045088267 -0.5 Z"/><text text-anchor="middle" pointer-events="none" font-size="8px" fill="#000000" x="108.34144107588267" y="3" font-family="Helvetica Neue, Helvetica, Arial, sans-serif">ds__hasOutput</text></g><g class="relationship" transform="translate(46.136494000218704 -42.13171201482692) rotate(524.7821792920067)"><path class="b-outline" fill="#A5ABB6" stroke="none" d="M 40 0.5 L 41.52049898043106 0.5 L 41.52049898043106 -0.5 L 40 -0.5 Z M 95.55956148043106 0.5 L 97.08006046086211 0.5 L 97.08006046086211 3.5 L 104.08006046086211 0 L 97.08006046086211 -3.5 L 97.08006046086211 -0.5 L 95.55956148043106 -0.5 Z"/><text text-anchor="middle" pointer-events="none" font-size="8px" fill="#000000" x="68.54003023043106" y="3" transform="rotate(180 68.54003023043106 0)" font-family="Helvetica Neue, Helvetica, Arial, sans-serif">ds__hasInput</text></g><g class="relationship" transform="translate(46.136494000218704 -42.13171201482692) rotate(305.4943385307665)"><path class="b-outline" fill="#A5ABB6" stroke="none" d="M 40 0.5 L 65.45246264326175 0.5 L 65.45246264326175 -0.5 L 40 -0.5 Z M 125.71418139326175 0.5 L 151.1666440365235 0.5 L 151.1666440365235 3.5 L 158.1666440365235 0 L 151.1666440365235 -3.5 L 151.1666440365235 -0.5 L 125.71418139326175 -0.5 Z"/><text text-anchor="middle" pointer-events="none" font-size="8px" fill="#000000" x="95.58332201826175" y="3" font-family="Helvetica Neue, Helvetica, Arial, sans-serif">ds__hasOutput</text></g><g class="relationship" transform="translate(46.136494000218704 -42.13171201482692) rotate(500.6065089806681)"><path class="b-outline" fill="#A5ABB6" stroke="none" d="M 40 0.5 L 81.22247828558287 0.5 L 81.22247828558287 -0.5 L 40 -0.5 Z M 135.26154078558287 0.5 L 176.48401907116573 0.5 L 176.48401907116573 3.5 L 183.48401907116573 0 L 176.48401907116573 -3.5 L 176.48401907116573 -0.5 L 135.26154078558287 -0.5 Z"/><text text-anchor="middle" pointer-events="none" font-size="8px" fill="#000000" x="108.24200953558287" y="3" transform="rotate(180 108.24200953558287 0)" font-family="Helvetica Neue, Helvetica, Arial, sans-serif">ds__hasInput</text></g><g class="relationship" transform="translate(46.136494000218704 -42.13171201482692) rotate(358.88460803478665)"><path class="b-outline" fill="#A5ABB6" stroke="none" d="M 40 0.5 L 58.85374248497584 0.5 L 58.85374248497584 -0.5 L 40 -0.5 Z M 127.99827373497584 0.5 L 146.85201621995168 0.5 L 146.85201621995168 3.5 L 153.85201621995168 0 L 146.85201621995168 -3.5 L 146.85201621995168 -0.5 L 127.99827373497584 -0.5 Z"/><text text-anchor="middle" pointer-events="none" font-size="8px" fill="#000000" x="93.42600810997584" y="3" font-family="Helvetica Neue, Helvetica, Arial, sans-serif">ds__hasNextTask</text></g><g class="relationship" transform="translate(221.97791994061163 -334.63508307740346) rotate(520.9028964871543)"><path class="b-outline" fill="#A5ABB6" stroke="none" d="M 40 0.5 L 194.34666372956983 0.5 L 194.34666372956983 -0.5 L 40 -0.5 Z M 267.50291372956985 0.5 L 421.84957745913965 0.5 L 421.84957745913965 3.5 L 428.84957745913965 0 L 421.84957745913965 -3.5 L 421.84957745913965 -0.5 L 267.50291372956985 -0.5 Z"/><text text-anchor="middle" pointer-events="none" font-size="8px" fill="#000000" x="230.92478872956983" y="3" transform="rotate(180 230.92478872956983 0)" font-family="Helvetica Neue, Helvetica, Arial, sans-serif">ds__hasReference</text></g><g class="relationship" transform="translate(445.50977458505736 -40.46777459405442) rotate(232.76952443476785)"><path class="b-outline" fill="#A5ABB6" stroke="none" d="M 40 0.5 L 154.21060666820995 0.5 L 154.21060666820995 -0.5 L 40 -0.5 Z M 208.24966916820995 0.5 L 322.4602758364199 0.5 L 322.4602758364199 3.5 L 329.4602758364199 0 L 322.4602758364199 -3.5 L 322.4602758364199 -0.5 L 208.24966916820995 -0.5 Z"/><text text-anchor="middle" pointer-events="none" font-size="8px" fill="#000000" x="181.23013791820995" y="3" transform="rotate(180 181.23013791820995 0)" font-family="Helvetica Neue, Helvetica, Arial, sans-serif">ds__hasInput</text></g><g class="relationship" transform="translate(-328.94174167305846 -62.68994004122837) rotate(270.153230842524)"><path class="b-outline" fill="#A5ABB6" stroke="none" d="M 40 0.5 L 44.2586658105932 0.5 L 44.2586658105932 -0.5 L 40 -0.5 Z M 44.2586658105932 0.5 L 48.5173316211864 0.5 L 48.5173316211864 3.5 L 55.5173316211864 0 L 48.5173316211864 -3.5 L 48.5173316211864 -0.5 L 44.2586658105932 -0.5 Z"/><text text-anchor="middle" pointer-events="none" font-size="8px" fill="#000000" x="44.2586658105932" y="3" font-family="Helvetica Neue, Helvetica, Arial, sans-serif"/></g><g class="relationship" transform="translate(655.3271941916803 -215.5594661925833) rotate(536.4100020990797)"><path class="b-outline" fill="#A5ABB6" stroke="none" d="M 40 0.5 L 45.36829548736248 0.5 L 45.36829548736248 -0.5 L 40 -0.5 Z M 45.36829548736248 0.5 L 50.73659097472496 0.5 L 50.73659097472496 3.5 L 57.73659097472496 0 L 50.73659097472496 -3.5 L 50.73659097472496 -0.5 L 45.36829548736248 -0.5 Z"/><text text-anchor="middle" pointer-events="none" font-size="8px" fill="#000000" x="45.36829548736248" y="3" transform="rotate(180 45.36829548736248 0)" font-family="Helvetica Neue, Helvetica, Arial, sans-serif"/></g><g class="relationship" transform="translate(445.50977458505736 -40.46777459405442) rotate(303.6018893676767)"><path class="b-outline" fill="#A5ABB6" stroke="none" d="M 40 0.5 L 67.80459601366594 0.5 L 67.80459601366594 -0.5 L 40 -0.5 Z M 128.06631476366596 0.5 L 155.8709107773319 0.5 L 155.8709107773319 3.5 L 162.8709107773319 0 L 155.8709107773319 -3.5 L 155.8709107773319 -0.5 L 128.06631476366596 -0.5 Z"/><text text-anchor="middle" pointer-events="none" font-size="8px" fill="#000000" x="97.93545538866594" y="3" font-family="Helvetica Neue, Helvetica, Arial, sans-serif">ds__hasOutput</text></g><g class="relationship" transform="translate(445.50977458505736 -40.46777459405442) rotate(385.9536113556029)"><path class="b-outline" fill="#A5ABB6" stroke="none" d="M 40 0.5 L 94.2619291027788 0.5 L 94.2619291027788 -0.5 L 40 -0.5 Z M 154.5236478527788 0.5 L 208.7855769555576 0.5 L 208.7855769555576 3.5 L 215.7855769555576 0 L 208.7855769555576 -3.5 L 208.7855769555576 -0.5 L 154.5236478527788 -0.5 Z"/><text text-anchor="middle" pointer-events="none" font-size="8px" fill="#000000" x="124.3927884777788" y="3" font-family="Helvetica Neue, Helvetica, Arial, sans-serif">ds__hasOutput</text></g><g class="relationship" transform="translate(770.8937664152463 72.97913176459923) rotate(180.90329059278196)"><path class="b-outline" fill="#A5ABB6" stroke="none" d="M 40 0.5 L 44.203293130611385 0.5 L 44.203293130611385 -0.5 L 40 -0.5 Z M 44.203293130611385 0.5 L 48.40658626122277 0.5 L 48.40658626122277 3.5 L 55.40658626122277 0 L 48.40658626122277 -3.5 L 48.40658626122277 -0.5 L 44.203293130611385 -0.5 Z"/><text text-anchor="middle" pointer-events="none" font-size="8px" fill="#000000" x="44.203293130611385" y="3" transform="rotate(180 44.203293130611385 0)" font-family="Helvetica Neue, Helvetica, Arial, sans-serif"/></g><g class="relationship" transform="translate(-670.175407614673 -309.4281434436276) rotate(181.21800738210283)"><path class="b-outline" fill="#A5ABB6" stroke="none" d="M 40 0.5 L 46.50339614608234 0.5 L 46.50339614608234 -0.5 L 40 -0.5 Z M 46.50339614608234 0.5 L 53.006792292164675 0.5 L 53.006792292164675 3.5 L 60.006792292164675 0 L 53.006792292164675 -3.5 L 53.006792292164675 -0.5 L 46.50339614608234 -0.5 Z"/><text text-anchor="middle" pointer-events="none" font-size="8px" fill="#000000" x="46.50339614608234" y="3" transform="rotate(180 46.50339614608234 0)" font-family="Helvetica Neue, Helvetica, Arial, sans-serif"/></g><g class="relationship" transform="translate(258.70871270875944 -198.14004771912093) rotate(183.13075789705186)"><path class="b-outline" fill="#A5ABB6" stroke="none" d="M 40 0.5 L 45.32897978787069 0.5 L 45.32897978787069 -0.5 L 40 -0.5 Z M 45.32897978787069 0.5 L 50.65795957574139 0.5 L 50.65795957574139 3.5 L 57.65795957574139 0 L 50.65795957574139 -3.5 L 50.65795957574139 -0.5 L 45.32897978787069 -0.5 Z"/><text text-anchor="middle" pointer-events="none" font-size="8px" fill="#000000" x="45.32897978787069" y="3" transform="rotate(180 45.32897978787069 0)" font-family="Helvetica Neue, Helvetica, Arial, sans-serif"/></g><g class="relationship" transform="translate(239.95177891420838 -45.90524169529948) rotate(441.8301020882327)"><path class="b-outline" fill="#A5ABB6" stroke="none" d="M 40 0.5 L 40.2861164868728 0.5 L 40.2861164868728 -0.5 L 40 -0.5 Z M 100.5478352368728 0.5 L 100.8339517237456 0.5 L 100.8339517237456 3.5 L 107.8339517237456 0 L 100.8339517237456 -3.5 L 100.8339517237456 -0.5 L 100.5478352368728 -0.5 Z"/><text text-anchor="middle" pointer-events="none" font-size="8px" fill="#000000" x="70.4169758618728" y="3" font-family="Helvetica Neue, Helvetica, Arial, sans-serif">ds__hasOutput</text></g><g class="relationship" transform="translate(353.8859816618924 76.69108215520384) rotate(525.6705891642071)"><path class="b-outline" fill="#A5ABB6" stroke="none" d="M 40 0.5 L 44.454770612836825 0.5 L 44.454770612836825 -0.5 L 40 -0.5 Z M 44.454770612836825 0.5 L 48.90954122567365 0.5 L 48.90954122567365 3.5 L 55.90954122567365 0 L 48.90954122567365 -3.5 L 48.90954122567365 -0.5 L 44.454770612836825 -0.5 Z"/><text text-anchor="middle" pointer-events="none" font-size="8px" fill="#000000" x="44.454770612836825" y="3" transform="rotate(180 44.454770612836825 0)" font-family="Helvetica Neue, Helvetica, Arial, sans-serif"/></g><g class="relationship" transform="translate(788.0947992041247 -46.11053516775314) rotate(360.2855922313744)"><path class="b-outline" fill="#A5ABB6" stroke="none" d="M 40 0.5 L 45.921977894489444 0.5 L 45.921977894489444 -0.5 L 40 -0.5 Z M 115.06650914448944 0.5 L 120.98848703897889 0.5 L 120.98848703897889 3.5 L 127.98848703897889 0 L 120.98848703897889 -3.5 L 120.98848703897889 -0.5 L 115.06650914448944 -0.5 Z"/><text text-anchor="middle" pointer-events="none" font-size="8px" fill="#000000" x="80.49424351948944" y="3" font-family="Helvetica Neue, Helvetica, Arial, sans-serif">ds__hasNextTask</text></g><g class="relationship" transform="translate(956.0811993695356 -45.27319586281203) rotate(507.4395375347442)"><path class="b-outline" fill="#A5ABB6" stroke="none" d="M 40 0.5 L 79.34174299336114 0.5 L 79.34174299336114 -0.5 L 40 -0.5 Z M 133.38080549336115 0.5 L 172.72254848672227 0.5 L 172.72254848672227 3.5 L 179.72254848672227 0 L 172.72254848672227 -3.5 L 172.72254848672227 -0.5 L 133.38080549336115 -0.5 Z"/><text text-anchor="middle" pointer-events="none" font-size="8px" fill="#000000" x="106.36127424336114" y="3" transform="rotate(180 106.36127424336114 0)" font-family="Helvetica Neue, Helvetica, Arial, sans-serif">ds__hasInput</text></g><g class="relationship" transform="translate(-92.89138460117064 -4.312235630257248) rotate(539.6702739139542)"><path class="b-outline" fill="#A5ABB6" stroke="none" d="M 40 0.5 L 43.926758783245006 0.5 L 43.926758783245006 -0.5 L 40 -0.5 Z M 43.926758783245006 0.5 L 47.85351756649001 0.5 L 47.85351756649001 3.5 L 54.85351756649001 0 L 47.85351756649001 -3.5 L 47.85351756649001 -0.5 L 43.926758783245006 -0.5 Z"/><text text-anchor="middle" pointer-events="none" font-size="8px" fill="#000000" x="43.926758783245006" y="3" transform="rotate(180 43.926758783245006 0)" font-family="Helvetica Neue, Helvetica, Arial, sans-serif"/></g><g class="relationship" transform="translate(616.7785184096879 -44.422266183667276) rotate(359.4353860831353)"><path class="b-outline" fill="#A5ABB6" stroke="none" d="M 40 0.5 L 47.59003401346544 0.5 L 47.59003401346544 -0.5 L 40 -0.5 Z M 116.73456526346544 0.5 L 124.32459927693088 0.5 L 124.32459927693088 3.5 L 131.32459927693088 0 L 124.32459927693088 -3.5 L 124.32459927693088 -0.5 L 116.73456526346544 -0.5 Z"/><text text-anchor="middle" pointer-events="none" font-size="8px" fill="#000000" x="82.16229963846544" y="3" font-family="Helvetica Neue, Helvetica, Arial, sans-serif">ds__hasNextTask</text></g><g class="relationship" transform="translate(788.0947992041247 -46.11053516775314) rotate(231.92038558252972)"><path class="b-outline" fill="#A5ABB6" stroke="none" d="M 40 0.5 L 77.11431236598132 0.5 L 77.11431236598132 -0.5 L 40 -0.5 Z M 131.15337486598133 0.5 L 168.26768723196264 0.5 L 168.26768723196264 3.5 L 175.26768723196264 0 L 168.26768723196264 -3.5 L 168.26768723196264 -0.5 L 131.15337486598133 -0.5 Z"/><text text-anchor="middle" pointer-events="none" font-size="8px" fill="#000000" x="104.13384361598132" y="3" transform="rotate(180 104.13384361598132 0)" font-family="Helvetica Neue, Helvetica, Arial, sans-serif">ds__hasInput</text></g><g class="relationship" transform="translate(-319.3763525173506 88.43342975844524) rotate(200.70880714984924)"><path class="b-outline" fill="#A5ABB6" stroke="none" d="M 40 0.5 L 45.03590357264586 0.5 L 45.03590357264586 -0.5 L 40 -0.5 Z M 45.03590357264586 0.5 L 50.071807145291714 0.5 L 50.071807145291714 3.5 L 57.071807145291714 0 L 50.071807145291714 -3.5 L 50.071807145291714 -0.5 L 45.03590357264586 -0.5 Z"/><text text-anchor="middle" pointer-events="none" font-size="8px" fill="#000000" x="45.03590357264586" y="3" transform="rotate(180 45.03590357264586 0)" font-family="Helvetica Neue, Helvetica, Arial, sans-serif"/></g><g class="relationship" transform="translate(-328.94174167305846 -62.68994004122837) rotate(446.3782815812804)"><path class="b-outline" fill="#A5ABB6" stroke="none" d="M 40 0.5 L 45.193363241805415 0.5 L 45.193363241805415 -0.5 L 40 -0.5 Z M 99.23242574180541 0.5 L 104.42578898361083 0.5 L 104.42578898361083 3.5 L 111.42578898361083 0 L 104.42578898361083 -3.5 L 104.42578898361083 -0.5 L 99.23242574180541 -0.5 Z"/><text text-anchor="middle" pointer-events="none" font-size="8px" fill="#000000" x="72.21289449180541" y="3" font-family="Helvetica Neue, Helvetica, Arial, sans-serif">ds__hasInput</text></g><g class="relationship" transform="translate(446.6704108532167 153.98250311834596) rotate(180.46615369779153)"><path class="b-outline" fill="#A5ABB6" stroke="none" d="M 40 0.5 L 104.31589233427496 0.5 L 104.31589233427496 -0.5 L 40 -0.5 Z M 177.47214233427496 0.5 L 241.78803466854993 0.5 L 241.78803466854993 3.5 L 248.78803466854993 0 L 241.78803466854993 -3.5 L 241.78803466854993 -0.5 L 177.47214233427496 -0.5 Z"/><text text-anchor="middle" pointer-events="none" font-size="8px" fill="#000000" x="140.89401733427496" y="3" transform="rotate(180 140.89401733427496 0)" font-family="Helvetica Neue, Helvetica, Arial, sans-serif">ds__hasReference</text></g><g class="relationship" transform="translate(445.50977458505736 -40.46777459405442) rotate(449.6580165850344)"><path class="b-outline" fill="#A5ABB6" stroke="none" d="M 40 0.5 L 66.70733949437884 0.5 L 66.70733949437884 -0.5 L 40 -0.5 Z M 120.74640199437884 0.5 L 147.4537414887577 0.5 L 147.4537414887577 3.5 L 154.4537414887577 0 L 147.4537414887577 -3.5 L 147.4537414887577 -0.5 L 120.74640199437884 -0.5 Z"/><text text-anchor="middle" pointer-events="none" font-size="8px" fill="#000000" x="93.72687074437884" y="3" font-family="Helvetica Neue, Helvetica, Arial, sans-serif">ds__hasInput</text></g><g class="relationship" transform="translate(-665.7313984687822 -21.873919887361723) rotate(180.66082396446131)"><path class="b-outline" fill="#A5ABB6" stroke="none" d="M 40 0.5 L 47.76680139215811 0.5 L 47.76680139215811 -0.5 L 40 -0.5 Z M 47.76680139215811 0.5 L 55.533602784316216 0.5 L 55.533602784316216 3.5 L 62.533602784316216 0 L 55.533602784316216 -3.5 L 55.533602784316216 -0.5 L 47.76680139215811 -0.5 Z"/><text text-anchor="middle" pointer-events="none" font-size="8px" fill="#000000" x="47.76680139215811" y="3" transform="rotate(180 47.76680139215811 0)" font-family="Helvetica Neue, Helvetica, Arial, sans-serif"/></g><g class="relationship" transform="translate(-672.7050602015621 77.78872064790612) rotate(539.8938212367366)"><path class="b-outline" fill="#A5ABB6" stroke="none" d="M 40 0.5 L 45.48937674439931 0.5 L 45.48937674439931 -0.5 L 40 -0.5 Z M 45.48937674439931 0.5 L 50.97875348879862 0.5 L 50.97875348879862 3.5 L 57.97875348879862 0 L 50.97875348879862 -3.5 L 50.97875348879862 -0.5 L 45.48937674439931 -0.5 Z"/><text text-anchor="middle" pointer-events="none" font-size="8px" fill="#000000" x="45.48937674439931" y="3" transform="rotate(180 45.48937674439931 0)" font-family="Helvetica Neue, Helvetica, Arial, sans-serif"/></g><g class="relationship" transform="translate(-670.7255040026246 -217.0521576718963) rotate(539.4325000670124)"><path class="b-outline" fill="#A5ABB6" stroke="none" d="M 40 0.5 L 47.35313523238393 0.5 L 47.35313523238393 -0.5 L 40 -0.5 Z M 47.35313523238393 0.5 L 54.706270464767854 0.5 L 54.706270464767854 3.5 L 61.706270464767854 0 L 54.706270464767854 -3.5 L 54.706270464767854 -0.5 L 47.35313523238393 -0.5 Z"/><text text-anchor="middle" pointer-events="none" font-size="8px" fill="#000000" x="47.35313523238393" y="3" transform="rotate(180 47.35313523238393 0)" font-family="Helvetica Neue, Helvetica, Arial, sans-serif"/></g><g class="relationship" transform="translate(-670.9012107385901 -121.69272268078726) rotate(182.79393068092276)"><path class="b-outline" fill="#A5ABB6" stroke="none" d="M 40 0.5 L 49.13402932638083 0.5 L 49.13402932638083 -0.5 L 40 -0.5 Z M 49.13402932638083 0.5 L 58.26805865276167 0.5 L 58.26805865276167 3.5 L 65.26805865276167 0 L 58.26805865276167 -3.5 L 58.26805865276167 -0.5 L 49.13402932638083 -0.5 Z"/><text text-anchor="middle" pointer-events="none" font-size="8px" fill="#000000" x="49.13402932638083" y="3" transform="rotate(180 49.13402932638083 0)" font-family="Helvetica Neue, Helvetica, Arial, sans-serif"/></g><g class="relationship" transform="translate(-490.0308281765376 -285.1915023276195) rotate(203.38966429604488)"><path class="b-outline" fill="#A5ABB6" stroke="none" d="M 40 0.5 L 111.23653373319866 0.5 L 111.23653373319866 -0.5 L 40 -0.5 Z M 184.39278373319866 0.5 L 255.6293174663973 0.5 L 255.6293174663973 3.5 L 262.6293174663973 0 L 255.6293174663973 -3.5 L 255.6293174663973 -0.5 L 184.39278373319866 -0.5 Z"/><text text-anchor="middle" pointer-events="none" font-size="8px" fill="#000000" x="147.81465873319866" y="3" transform="rotate(180 147.81465873319866 0)" font-family="Helvetica Neue, Helvetica, Arial, sans-serif">ds__hasReference</text></g><g class="relationship" transform="translate(-328.94174167305846 -62.68994004122837) rotate(234.09580702234814)"><path class="b-outline" fill="#A5ABB6" stroke="none" d="M 40 0.5 L 106.82732802462101 0.5 L 106.82732802462101 -0.5 L 40 -0.5 Z M 160.866390524621 0.5 L 227.69371854924202 0.5 L 227.69371854924202 3.5 L 234.69371854924202 0 L 227.69371854924202 -3.5 L 227.69371854924202 -0.5 L 160.866390524621 -0.5 Z"/><text text-anchor="middle" pointer-events="none" font-size="8px" fill="#000000" x="133.846859274621" y="3" transform="rotate(180 133.846859274621 0)" font-family="Helvetica Neue, Helvetica, Arial, sans-serif">ds__hasInput</text></g><g class="relationship" transform="translate(239.95177891420838 -45.90524169529948) rotate(307.8331724864132)"><path class="b-outline" fill="#A5ABB6" stroke="none" d="M 40 0.5 L 44.90479529858083 0.5 L 44.90479529858083 -0.5 L 40 -0.5 Z M 44.90479529858083 0.5 L 49.80959059716166 0.5 L 49.80959059716166 3.5 L 56.80959059716166 0 L 49.80959059716166 -3.5 L 49.80959059716166 -0.5 L 44.90479529858083 -0.5 Z"/><text text-anchor="middle" pointer-events="none" font-size="8px" fill="#000000" x="44.90479529858083" y="3" font-family="Helvetica Neue, Helvetica, Arial, sans-serif"/></g><g class="relationship" transform="translate(239.95177891420838 -45.90524169529948) rotate(224.80166187174098)"><path class="b-outline" fill="#A5ABB6" stroke="none" d="M 40 0.5 L 96.376064470192 0.5 L 96.376064470192 -0.5 L 40 -0.5 Z M 150.415126970192 0.5 L 206.791191440384 0.5 L 206.791191440384 3.5 L 213.791191440384 0 L 206.791191440384 -3.5 L 206.791191440384 -0.5 L 150.415126970192 -0.5 Z"/><text text-anchor="middle" pointer-events="none" font-size="8px" fill="#000000" x="123.395595720192" y="3" transform="rotate(180 123.395595720192 0)" font-family="Helvetica Neue, Helvetica, Arial, sans-serif">ds__hasInput</text></g><g class="relationship" transform="translate(239.95177891420838 -45.90524169529948) rotate(361.5152477094028)"><path class="b-outline" fill="#A5ABB6" stroke="none" d="M 40 0.5 L 64.74268420319119 0.5 L 64.74268420319119 -0.5 L 40 -0.5 Z M 133.88721545319117 0.5 L 158.62989965638238 0.5 L 158.62989965638238 3.5 L 165.62989965638238 0 L 158.62989965638238 -3.5 L 158.62989965638238 -0.5 L 133.88721545319117 -0.5 Z"/><text text-anchor="middle" pointer-events="none" font-size="8px" fill="#000000" x="99.31494982819119" y="3" font-family="Helvetica Neue, Helvetica, Arial, sans-serif">ds__hasNextTask</text></g><g class="relationship" transform="translate(239.95177891420838 -45.90524169529948) rotate(277.0240434926852)"><path class="b-outline" fill="#A5ABB6" stroke="none" d="M 40 0.5 L 46.17345853799124 0.5 L 46.17345853799124 -0.5 L 40 -0.5 Z M 100.21252103799124 0.5 L 106.38597957598247 0.5 L 106.38597957598247 3.5 L 113.38597957598247 0 L 106.38597957598247 -3.5 L 106.38597957598247 -0.5 L 100.21252103799124 -0.5 Z"/><text text-anchor="middle" pointer-events="none" font-size="8px" fill="#000000" x="73.19298978799124" y="3" font-family="Helvetica Neue, Helvetica, Arial, sans-serif">ds__hasInput</text></g><g class="relationship" transform="translate(-328.94174167305846 -62.68994004122837) rotate(382.65128485351113)"><path class="b-outline" fill="#A5ABB6" stroke="none" d="M 40 0.5 L 42.869103932059474 0.5 L 42.869103932059474 -0.5 L 40 -0.5 Z M 103.13082268205947 0.5 L 105.99992661411895 0.5 L 105.99992661411895 3.5 L 112.99992661411895 0 L 105.99992661411895 -3.5 L 105.99992661411895 -0.5 L 103.13082268205947 -0.5 Z"/><text text-anchor="middle" pointer-events="none" font-size="8px" fill="#000000" x="72.99996330705947" y="3" font-family="Helvetica Neue, Helvetica, Arial, sans-serif">ds__hasOutput</text></g><g class="relationship" transform="translate(-19.592854577491153 99.13533410614474) rotate(211.46505000260566)"><path class="b-outline" fill="#A5ABB6" stroke="none" d="M 40 0.5 L 58.49081615405173 0.5 L 58.49081615405173 -0.5 L 40 -0.5 Z M 131.64706615405174 0.5 L 150.13788230810346 0.5 L 150.13788230810346 3.5 L 157.13788230810346 0 L 150.13788230810346 -3.5 L 150.13788230810346 -0.5 L 131.64706615405174 -0.5 Z"/><text text-anchor="middle" pointer-events="none" font-size="8px" fill="#000000" x="95.06894115405173" y="3" transform="rotate(180 95.06894115405173 0)" font-family="Helvetica Neue, Helvetica, Arial, sans-serif">ds__hasReference</text></g><g class="relationship" transform="translate(445.50977458505736 -40.46777459405442) rotate(523.2925826647934)"><path class="b-outline" fill="#A5ABB6" stroke="none" d="M 40 0.5 L 212.28156204071954 0.5 L 212.28156204071954 -0.5 L 40 -0.5 Z M 266.32062454071956 0.5 L 438.60218658143907 0.5 L 438.60218658143907 3.5 L 445.60218658143907 0 L 438.60218658143907 -3.5 L 438.60218658143907 -0.5 L 266.32062454071956 -0.5 Z"/><text text-anchor="middle" pointer-events="none" font-size="8px" fill="#000000" x="239.30109329071954" y="3" transform="rotate(180 239.30109329071954 0)" font-family="Helvetica Neue, Helvetica, Arial, sans-serif">ds__hasInput</text></g><g class="relationship" transform="translate(445.50977458505736 -40.46777459405442) rotate(488.0270968305999)"><path class="b-outline" fill="#A5ABB6" stroke="none" d="M 40 0.5 L 43.84631632874449 0.5 L 43.84631632874449 -0.5 L 40 -0.5 Z M 97.88537882874449 0.5 L 101.73169515748899 0.5 L 101.73169515748899 3.5 L 108.73169515748899 0 L 101.73169515748899 -3.5 L 101.73169515748899 -0.5 L 97.88537882874449 -0.5 Z"/><text text-anchor="middle" pointer-events="none" font-size="8px" fill="#000000" x="70.86584757874449" y="3" transform="rotate(180 70.86584757874449 0)" font-family="Helvetica Neue, Helvetica, Arial, sans-serif">ds__hasInput</text></g><g class="relationship" transform="translate(445.50977458505736 -40.46777459405442) rotate(269.71220830265895)"><path class="b-outline" fill="#A5ABB6" stroke="none" d="M 40 0.5 L 47.86557703362381 0.5 L 47.86557703362381 -0.5 L 40 -0.5 Z M 47.86557703362381 0.5 L 55.731154067247616 0.5 L 55.731154067247616 3.5 L 62.731154067247616 0 L 55.731154067247616 -3.5 L 55.731154067247616 -0.5 L 47.86557703362381 -0.5 Z"/><text text-anchor="middle" pointer-events="none" font-size="8px" fill="#000000" x="47.86557703362381" y="3" transform="rotate(180 47.86557703362381 0)" font-family="Helvetica Neue, Helvetica, Arial, sans-serif"/></g><g class="relationship" transform="translate(445.50977458505736 -40.46777459405442) rotate(358.6773101617873)"><path class="b-outline" fill="#A5ABB6" stroke="none" d="M 40 0.5 L 47.584929949859955 0.5 L 47.584929949859955 -0.5 L 40 -0.5 Z M 116.72946119985995 0.5 L 124.31439114971991 0.5 L 124.31439114971991 3.5 L 131.3143911497199 0 L 124.31439114971991 -3.5 L 124.31439114971991 -0.5 L 116.72946119985995 -0.5 Z"/><text text-anchor="middle" pointer-events="none" font-size="8px" fill="#000000" x="82.15719557485995" y="3" font-family="Helvetica Neue, Helvetica, Arial, sans-serif">ds__hasNextTask</text></g><g class="relationship" transform="translate(-126.57322440924929 99.70079465104092) rotate(192.39337002456892)"><path class="b-outline" fill="#A5ABB6" stroke="none" d="M 40 0.5 L 48.85659951923809 0.5 L 48.85659951923809 -0.5 L 40 -0.5 Z M 48.85659951923809 0.5 L 57.713199038476176 0.5 L 57.713199038476176 3.5 L 64.71319903847618 0 L 57.713199038476176 -3.5 L 57.713199038476176 -0.5 L 48.85659951923809 -0.5 Z"/><text text-anchor="middle" pointer-events="none" font-size="8px" fill="#000000" x="48.85659951923809" y="3" transform="rotate(180 48.85659951923809 0)" font-family="Helvetica Neue, Helvetica, Arial, sans-serif"/></g><g class="relationship" transform="translate(616.7785184096879 -44.422266183667276) rotate(271.5350555914184)"><path class="b-outline" fill="#A5ABB6" stroke="none" d="M 40 0.5 L 41.87698215615622 0.5 L 41.87698215615622 -0.5 L 40 -0.5 Z M 41.87698215615622 0.5 L 43.75396431231243 0.5 L 43.75396431231243 3.5 L 50.75396431231243 0 L 43.75396431231243 -3.5 L 43.75396431231243 -0.5 L 41.87698215615622 -0.5 Z"/><text text-anchor="middle" pointer-events="none" font-size="8px" fill="#000000" x="41.87698215615622" y="3" font-family="Helvetica Neue, Helvetica, Arial, sans-serif"/></g><g class="relationship" transform="translate(-776.0441379210328 -126.82390539326437) rotate(220.88885181161146)"><path class="b-outline" fill="#A5ABB6" stroke="none" d="M 40 0.5 L 57.22316958012365 0.5 L 57.22316958012365 -0.5 L 40 -0.5 Z M 147.71535708012365 0.5 L 164.9385266602473 0.5 L 164.9385266602473 3.5 L 171.9385266602473 0 L 164.9385266602473 -3.5 L 164.9385266602473 -0.5 L 147.71535708012365 -0.5 Z"/><text text-anchor="middle" pointer-events="none" font-size="8px" fill="#000000" x="102.46926333012365" y="3" transform="rotate(180 102.46926333012365 0)" font-family="Helvetica Neue, Helvetica, Arial, sans-serif">ds__hasDataSemantics</text></g><g class="relationship" transform="translate(-776.0441379210328 -126.82390539326437) rotate(513.4925433865183)"><path class="b-outline" fill="#A5ABB6" stroke="none" d="M 40 0.5 L 40.79505341617737 0.5 L 40.79505341617737 -0.5 L 40 -0.5 Z M 126.39661591617737 0.5 L 127.19166933235473 0.5 L 127.19166933235473 3.5 L 134.19166933235473 0 L 127.19166933235473 -3.5 L 127.19166933235473 -0.5 L 126.39661591617737 -0.5 Z"/><text text-anchor="middle" pointer-events="none" font-size="8px" fill="#000000" x="83.59583466617737" y="3" transform="rotate(180 83.59583466617737 0)" font-family="Helvetica Neue, Helvetica, Arial, sans-serif">ds__hasDataStructure</text></g><g class="relationship" transform="translate(-772.4267856162303 -216.04479974018892) rotate(493.68959663758164)"><path class="b-outline" fill="#A5ABB6" stroke="none" d="M 40 0.5 L 69.15132561326048 0.5 L 69.15132561326048 -0.5 L 40 -0.5 Z M 154.7528881132605 0.5 L 183.90421372652096 0.5 L 183.90421372652096 3.5 L 190.90421372652096 0 L 183.90421372652096 -3.5 L 183.90421372652096 -0.5 L 154.7528881132605 -0.5 Z"/><text text-anchor="middle" pointer-events="none" font-size="8px" fill="#000000" x="111.95210686326048" y="3" transform="rotate(180 111.95210686326048 0)" font-family="Helvetica Neue, Helvetica, Arial, sans-serif">ds__hasDataStructure</text></g><g class="relationship" transform="translate(-772.4267856162303 -216.04479974018892) rotate(196.8150238510445)"><path class="b-outline" fill="#A5ABB6" stroke="none" d="M 40 0.5 L 41.056944525375556 0.5 L 41.056944525375556 -0.5 L 40 -0.5 Z M 123.09991327537556 0.5 L 124.15685780075111 0.5 L 124.15685780075111 3.5 L 131.1568578007511 0 L 124.15685780075111 -3.5 L 124.15685780075111 -0.5 L 123.09991327537556 -0.5 Z"/><text text-anchor="middle" pointer-events="none" font-size="8px" fill="#000000" x="82.07842890037556" y="3" transform="rotate(180 82.07842890037556 0)" font-family="Helvetica Neue, Helvetica, Arial, sans-serif">ds__hasDataSema…</text></g><g class="relationship" transform="translate(-770.1596035865108 -311.5539516271888) rotate(524.522057095083)"><path class="b-outline" fill="#A5ABB6" stroke="none" d="M 40 0.5 L 41.65692650032395 0.5 L 41.65692650032395 -0.5 L 40 -0.5 Z M 123.69989525032395 0.5 L 125.3568217506479 0.5 L 125.3568217506479 3.5 L 132.3568217506479 0 L 125.3568217506479 -3.5 L 125.3568217506479 -0.5 L 123.69989525032395 -0.5 Z"/><text text-anchor="middle" pointer-events="none" font-size="8px" fill="#000000" x="82.67841087532395" y="3" transform="rotate(180 82.67841087532395 0)" font-family="Helvetica Neue, Helvetica, Arial, sans-serif">ds__hasDataSema…</text></g><g class="relationship" transform="translate(-770.1596035865108 -311.5539516271888) rotate(481.6457863799202)"><path class="b-outline" fill="#A5ABB6" stroke="none" d="M 40 0.5 L 107.8586393550836 0.5 L 107.8586393550836 -0.5 L 40 -0.5 Z M 193.4602018550836 0.5 L 261.3188412101672 0.5 L 261.3188412101672 3.5 L 268.3188412101672 0 L 261.3188412101672 -3.5 L 261.3188412101672 -0.5 L 193.4602018550836 -0.5 Z"/><text text-anchor="middle" pointer-events="none" font-size="8px" fill="#000000" x="150.6594206050836" y="3" transform="rotate(180 150.6594206050836 0)" font-family="Helvetica Neue, Helvetica, Arial, sans-serif">ds__hasDataStructure</text></g><g class="relationship" transform="translate(-770.6836454493572 77.97029173403848) rotate(244.2657239666928)"><path class="b-outline" fill="#A5ABB6" stroke="none" d="M 40 0.5 L 141.92951714597652 0.5 L 141.92951714597652 -0.5 L 40 -0.5 Z M 232.42170464597652 0.5 L 334.35122179195304 0.5 L 334.35122179195304 3.5 L 341.35122179195304 0 L 334.35122179195304 -3.5 L 334.35122179195304 -0.5 L 232.42170464597652 -0.5 Z"/><text text-anchor="middle" pointer-events="none" font-size="8px" fill="#000000" x="187.17561089597652" y="3" transform="rotate(180 187.17561089597652 0)" font-family="Helvetica Neue, Helvetica, Arial, sans-serif">ds__hasDataSemantics</text></g><g class="relationship" transform="translate(-770.6836454493572 77.97029173403848) rotate(218.23645800695044)"><path class="b-outline" fill="#A5ABB6" stroke="none" d="M 40 0.5 L 56.33959676431543 0.5 L 56.33959676431543 -0.5 L 40 -0.5 Z M 141.94115926431544 0.5 L 158.28075602863086 0.5 L 158.28075602863086 3.5 L 165.28075602863086 0 L 158.28075602863086 -3.5 L 158.28075602863086 -0.5 L 141.94115926431544 -0.5 Z"/><text text-anchor="middle" pointer-events="none" font-size="8px" fill="#000000" x="99.14037801431543" y="3" transform="rotate(180 99.14037801431543 0)" font-family="Helvetica Neue, Helvetica, Arial, sans-serif">ds__hasDataStructure</text></g><g class="relationship" transform="translate(-768.2581816718 -23.05647050925151) rotate(235.285354181159)"><path class="b-outline" fill="#A5ABB6" stroke="none" d="M 40 0.5 L 98.76090737221554 0.5 L 98.76090737221554 -0.5 L 40 -0.5 Z M 189.25309487221554 0.5 L 248.01400224443108 0.5 L 248.01400224443108 3.5 L 255.01400224443108 0 L 248.01400224443108 -3.5 L 248.01400224443108 -0.5 L 189.25309487221554 -0.5 Z"/><text text-anchor="middle" pointer-events="none" font-size="8px" fill="#000000" x="144.00700112221554" y="3" transform="rotate(180 144.00700112221554 0)" font-family="Helvetica Neue, Helvetica, Arial, sans-serif">ds__hasDataSemantics</text></g><g class="relationship" transform="translate(-768.2581816718 -23.05647050925151) rotate(189.03451173864806)"><path class="b-outline" fill="#A5ABB6" stroke="none" d="M 40 0.5 L 41.452750388295996 0.5 L 41.452750388295996 -0.5 L 40 -0.5 Z M 117.269156638296 0.5 L 118.72190702659199 0.5 L 118.72190702659199 3.5 L 125.72190702659199 0 L 118.72190702659199 -3.5 L 118.72190702659199 -0.5 L 117.269156638296 -0.5 Z"/><text text-anchor="middle" pointer-events="none" font-size="8px" fill="#000000" x="79.360953513296" y="3" transform="rotate(180 79.360953513296 0)" font-family="Helvetica Neue, Helvetica, Arial, sans-serif">ds__hasDataStru…</text></g><g class="relationship" transform="translate(-328.94174167305846 -62.68994004122837) rotate(414.42037985869797)"><path class="b-outline" fill="#A5ABB6" stroke="none" d="M 40 0.5 L 52.3863603519609 0.5 L 52.3863603519609 -0.5 L 40 -0.5 Z M 112.6480791019609 0.5 L 125.0344394539218 0.5 L 125.0344394539218 3.5 L 132.0344394539218 0 L 125.0344394539218 -3.5 L 125.0344394539218 -0.5 L 112.6480791019609 -0.5 Z"/><text text-anchor="middle" pointer-events="none" font-size="8px" fill="#000000" x="82.5172197269609" y="3" font-family="Helvetica Neue, Helvetica, Arial, sans-serif">ds__hasOutput</text></g><g class="relationship" transform="translate(-767.7919606985897 -405.329993454504) rotate(474.7365388971908)"><path class="b-outline" fill="#A5ABB6" stroke="none" d="M 40 0.5 L 149.82013688997776 0.5 L 149.82013688997776 -0.5 L 40 -0.5 Z M 235.42169938997776 0.5 L 345.2418362799555 0.5 L 345.2418362799555 3.5 L 352.2418362799555 0 L 345.2418362799555 -3.5 L 345.2418362799555 -0.5 L 235.42169938997776 -0.5 Z"/><text text-anchor="middle" pointer-events="none" font-size="8px" fill="#000000" x="192.62091813997776" y="3" transform="rotate(180 192.62091813997776 0)" font-family="Helvetica Neue, Helvetica, Arial, sans-serif">ds__hasDataStructure</text></g><g class="relationship" transform="translate(-767.7919606985897 -405.329993454504) rotate(500.31954556417077)"><path class="b-outline" fill="#A5ABB6" stroke="none" d="M 40 0.5 L 60.706759801326044 0.5 L 60.706759801326044 -0.5 L 40 -0.5 Z M 151.19894730132603 0.5 L 171.9057071026521 0.5 L 171.9057071026521 3.5 L 178.9057071026521 0 L 171.9057071026521 -3.5 L 171.9057071026521 -0.5 L 151.19894730132603 -0.5 Z"/><text text-anchor="middle" pointer-events="none" font-size="8px" fill="#000000" x="105.95285355132604" y="3" transform="rotate(180 105.95285355132604 0)" font-family="Helvetica Neue, Helvetica, Arial, sans-serif">ds__hasDataSemantics</text></g><g class="relationship" transform="translate(59.874163339885456 -224.74042062214266) rotate(513.9499039428541)"><path class="b-outline" fill="#A5ABB6" stroke="none" d="M 40 0.5 L 91.77393790260518 0.5 L 91.77393790260518 -0.5 L 40 -0.5 Z M 164.93018790260518 0.5 L 216.70412580521037 0.5 L 216.70412580521037 3.5 L 223.70412580521037 0 L 216.70412580521037 -3.5 L 216.70412580521037 -0.5 L 164.93018790260518 -0.5 Z"/><text text-anchor="middle" pointer-events="none" font-size="8px" fill="#000000" x="128.35206290260518" y="3" transform="rotate(180 128.35206290260518 0)" font-family="Helvetica Neue, Helvetica, Arial, sans-serif">ds__hasReference</text></g><g class="relationship" transform="translate(-328.94174167305846 -62.68994004122837) rotate(343.06828922184127)"><path class="b-outline" fill="#A5ABB6" stroke="none" d="M 40 0.5 L 45.76127312862228 0.5 L 45.76127312862228 -0.5 L 40 -0.5 Z M 106.02299187862228 0.5 L 111.78426500724456 0.5 L 111.78426500724456 3.5 L 118.78426500724456 0 L 111.78426500724456 -3.5 L 111.78426500724456 -0.5 L 106.02299187862228 -0.5 Z"/><text text-anchor="middle" pointer-events="none" font-size="8px" fill="#000000" x="75.89213250362228" y="3" font-family="Helvetica Neue, Helvetica, Arial, sans-serif">ds__hasOutput</text></g><g class="relationship" transform="translate(-328.94174167305846 -62.68994004122837) rotate(312.299836795807)"><path class="b-outline" fill="#A5ABB6" stroke="none" d="M 40 0.5 L 46.511295371402326 0.5 L 46.511295371402326 -0.5 L 40 -0.5 Z M 106.77301412140233 0.5 L 113.28430949280465 0.5 L 113.28430949280465 3.5 L 120.28430949280465 0 L 113.28430949280465 -3.5 L 113.28430949280465 -0.5 L 106.77301412140233 -0.5 Z"/><text text-anchor="middle" pointer-events="none" font-size="8px" fill="#000000" x="76.64215474640233" y="3" font-family="Helvetica Neue, Helvetica, Arial, sans-serif">ds__hasOutput</text></g></g><g class="layer nodes"><g class="node" aria-label="graph-node2" transform="translate(-506.294387265287,-63.87043849148764)"><circle class="b-outline" cx="0" cy="0" r="40" fill="#8DCC93" stroke="#5db665" stroke-width="2px"/><text class="caption" text-anchor="middle" pointer-events="none" x="0" y="5" font-size="10px" fill="#2A2C34" font-family="Helvetica Neue, Helvetica, Arial, sans-serif"> ml:Concatenati…</text></g><g class="node" aria-label="graph-node3" transform="translate(954.2985816956959,-143.48769066028518)"><circle class="b-outline" cx="0" cy="0" r="40" fill="#D9C8AE" stroke="#c0a378" stroke-width="2px"/><text class="caption" text-anchor="middle" pointer-events="none" x="0" y="5" font-size="10px" fill="#2A2C34" font-family="Helvetica Neue, Helvetica, Arial, sans-serif"> ml:ScatterplotM…</text></g><g class="node" aria-label="graph-node4" transform="translate(792.6857331280758,-144.1856361492401)"><circle class="b-outline" cx="0" cy="0" r="40" fill="#D9C8AE" stroke="#c0a378" stroke-width="2px"/><text class="caption" text-anchor="middle" pointer-events="none" x="0" y="5" font-size="10px" fill="#2A2C34" font-family="Helvetica Neue, Helvetica, Arial, sans-serif"> ml:ScatterplotM…</text></g><g class="node" aria-label="graph-node5" transform="translate(46.136494000218704,-42.13171201482692)"><circle class="b-outline" cx="0" cy="0" r="40" fill="#8DCC93" stroke="#5db665" stroke-width="2px"/><text class="caption" text-anchor="middle" pointer-events="none" x="0" y="5" font-size="10px" fill="#2A2C34" font-family="Helvetica Neue, Helvetica, Arial, sans-serif"> ml:Train1</text></g><g class="node" aria-label="graph-node6" transform="translate(221.97791994061163,-334.63508307740346)"><circle class="b-outline" cx="0" cy="0" r="40" fill="#57C7E3" stroke="#23b3d7" stroke-width="2px"/><text class="caption" text-anchor="middle" pointer-events="none" x="0" y="5" font-size="10px" fill="#2A2C34" font-family="Helvetica Neue, Helvetica, Arial, sans-serif"> ml:TestRealY1_1</text></g><g class="node" aria-label="graph-node7" transform="translate(-328.68629207664475,-158.20693007721823)"><circle class="b-outline" cx="0" cy="0" r="40" fill="#D9C8AE" stroke="#c0a378" stroke-width="2px"/><text class="caption" text-anchor="middle" pointer-events="none" x="0" y="5" font-size="10px" fill="#2A2C34" font-family="Helvetica Neue, Helvetica, Arial, sans-serif"> ml:DataSplittin…</text></g><g class="node" aria-label="graph-node8" transform="translate(557.7823942183411,-209.43956312783348)"><circle class="b-outline" cx="0" cy="0" r="40" fill="#604A0E" stroke="#423204" stroke-width="2px"/><text class="caption" text-anchor="middle" pointer-events="none" x="0" y="5" font-size="10px" fill="#FFFFFF" font-family="Helvetica Neue, Helvetica, Arial, sans-serif"> ml:MLTrainErr1</text></g><g class="node" aria-label="graph-node9" transform="translate(675.4990364511809,71.47507155862796)"><circle class="b-outline" cx="0" cy="0" r="40" fill="#604A0E" stroke="#423204" stroke-width="2px"/><text class="caption" text-anchor="middle" pointer-events="none" x="0" y="5" font-size="10px" fill="#FFFFFF" font-family="Helvetica Neue, Helvetica, Arial, sans-serif"> ml:MLTestErr1</text></g><g class="node" aria-label="graph-node10" transform="translate(-670.175407614673,-309.4281434436276)"><circle class="b-outline" cx="0" cy="0" r="40" fill="#4C8EDA" stroke="#2870c2" stroke-width="2px"/><text class="caption" text-anchor="middle" pointer-events="none" x="0" y="5" font-size="10px" fill="#FFFFFF" font-family="Helvetica Neue, Helvetica, Arial, sans-serif"> ml:Concatenati…</text></g><g class="node" aria-label="graph-node11" transform="translate(161.1965080768383,-203.47362216028887)"><circle class="b-outline" cx="0" cy="0" r="40" fill="#604A0E" stroke="#423204" stroke-width="2px"/><text class="caption" text-anchor="middle" pointer-events="none" x="0" y="5" font-size="10px" fill="#FFFFFF" font-family="Helvetica Neue, Helvetica, Arial, sans-serif"> ml:TrainModel1</text></g><g class="node" aria-label="graph-node12" transform="translate(260.9602998952299,100.42834750570631)"><circle class="b-outline" cx="0" cy="0" r="40" fill="#604A0E" stroke="#423204" stroke-width="2px"/><text class="caption" text-anchor="middle" pointer-events="none" x="0" y="5" font-size="10px" fill="#FFFFFF" font-family="Helvetica Neue, Helvetica, Arial, sans-serif"> ml:PredictedVal…</text></g><g class="node" aria-label="graph-node13" transform="translate(956.0811993695356,-45.27319586281203)"><circle class="b-outline" cx="0" cy="0" r="40" fill="#8DCC93" stroke="#5db665" stroke-width="2px"/><text class="caption" text-anchor="middle" pointer-events="none" x="0" y="5" font-size="10px" fill="#2A2C34" font-family="Helvetica Neue, Helvetica, Arial, sans-serif"> ml:PlotTask2</text></g><g class="node" aria-label="graph-node14" transform="translate(-92.89138460117064,-4.312235630257248)"><circle class="b-outline" cx="0" cy="0" r="40" fill="#57C7E3" stroke="#23b3d7" stroke-width="2px"/><text class="caption" text-anchor="middle" pointer-events="none" x="0" y="5" font-size="10px" fill="#2A2C34" font-family="Helvetica Neue, Helvetica, Arial, sans-serif"> ml:TrainY1_1</text></g><g class="node" aria-label="graph-node15" transform="translate(788.0947992041247,-46.11053516775314)"><circle class="b-outline" cx="0" cy="0" r="40" fill="#8DCC93" stroke="#5db665" stroke-width="2px"/><text class="caption" text-anchor="middle" pointer-events="none" x="0" y="5" font-size="10px" fill="#2A2C34" font-family="Helvetica Neue, Helvetica, Arial, sans-serif"> ml:PlotTask1</text></g><g class="node" aria-label="graph-node16" transform="translate(-319.3763525173506,88.43342975844524)"><circle class="b-outline" cx="0" cy="0" r="40" fill="#57C7E3" stroke="#23b3d7" stroke-width="2px"/><text class="caption" text-anchor="middle" pointer-events="none" x="0" y="5" font-size="10px" fill="#2A2C34" font-family="Helvetica Neue, Helvetica, Arial, sans-serif"> ml:DataSplittin…</text></g><g class="node" aria-label="graph-node17" transform="translate(446.6704108532167,153.98250311834596)"><circle class="b-outline" cx="0" cy="0" r="40" fill="#57C7E3" stroke="#23b3d7" stroke-width="2px"/><text class="caption" text-anchor="middle" pointer-events="none" x="0" y="5" font-size="10px" fill="#2A2C34" font-family="Helvetica Neue, Helvetica, Arial, sans-serif"> ml:TrainPredict…</text></g><g class="node" aria-label="graph-node18" transform="translate(655.3271941916803,-215.5594661925833)"><circle class="b-outline" cx="0" cy="0" r="40" fill="#57C7E3" stroke="#23b3d7" stroke-width="2px"/><text class="caption" text-anchor="middle" pointer-events="none" x="0" y="5" font-size="10px" fill="#2A2C34" font-family="Helvetica Neue, Helvetica, Arial, sans-serif"> visu:Vector1_1</text></g><g class="node" aria-label="graph-node19" transform="translate(-665.7313984687822,-21.873919887361723)"><circle class="b-outline" cx="0" cy="0" r="40" fill="#4C8EDA" stroke="#2870c2" stroke-width="2px"/><text class="caption" text-anchor="middle" pointer-events="none" x="0" y="5" font-size="10px" fill="#FFFFFF" font-family="Helvetica Neue, Helvetica, Arial, sans-serif"> ml:Concatenati…</text></g><g class="node" aria-label="graph-node20" transform="translate(-672.7050602015621,77.78872064790612)"><circle class="b-outline" cx="0" cy="0" r="40" fill="#4C8EDA" stroke="#2870c2" stroke-width="2px"/><text class="caption" text-anchor="middle" pointer-events="none" x="0" y="5" font-size="10px" fill="#FFFFFF" font-family="Helvetica Neue, Helvetica, Arial, sans-serif"> ml:Concatenati…</text></g><g class="node" aria-label="graph-node21" transform="translate(-670.7255040026246,-217.0521576718963)"><circle class="b-outline" cx="0" cy="0" r="40" fill="#4C8EDA" stroke="#2870c2" stroke-width="2px"/><text class="caption" text-anchor="middle" pointer-events="none" x="0" y="5" font-size="10px" fill="#FFFFFF" font-family="Helvetica Neue, Helvetica, Arial, sans-serif"> ml:Concatenati…</text></g><g class="node" aria-label="graph-node22" transform="translate(-670.9012107385901,-121.69272268078726)"><circle class="b-outline" cx="0" cy="0" r="40" fill="#4C8EDA" stroke="#2870c2" stroke-width="2px"/><text class="caption" text-anchor="middle" pointer-events="none" x="0" y="5" font-size="10px" fill="#FFFFFF" font-family="Helvetica Neue, Helvetica, Arial, sans-serif"> ml:Concatenati…</text></g><g class="node" aria-label="graph-node23" transform="translate(-490.0308281765376,-285.1915023276195)"><circle class="b-outline" cx="0" cy="0" r="40" fill="#57C7E3" stroke="#23b3d7" stroke-width="2px"/><text class="caption" text-anchor="middle" pointer-events="none" x="0" y="5" font-size="10px" fill="#2A2C34" font-family="Helvetica Neue, Helvetica, Arial, sans-serif"> ml:DataSplittin…</text></g><g class="node" aria-label="graph-node24" transform="translate(239.95177891420838,-45.90524169529948)"><circle class="b-outline" cx="0" cy="0" r="40" fill="#8DCC93" stroke="#5db665" stroke-width="2px"/><text class="caption" text-anchor="middle" pointer-events="none" x="0" y="5" font-size="10px" fill="#2A2C34" font-family="Helvetica Neue, Helvetica, Arial, sans-serif"> ml:Test1</text></g><g class="node" aria-label="graph-node25" transform="translate(157.89193402577348,151.6329736025868)"><circle class="b-outline" cx="0" cy="0" r="40" fill="#604A0E" stroke="#423204" stroke-width="2px"/><text class="caption" text-anchor="middle" pointer-events="none" x="0" y="5" font-size="10px" fill="#FFFFFF" font-family="Helvetica Neue, Helvetica, Arial, sans-serif"> ml:PredictedVal…</text></g><g class="node" aria-label="graph-node26" transform="translate(-187.7433315025503,-3.7663750672154777)"><circle class="b-outline" cx="0" cy="0" r="40" fill="#604A0E" stroke="#423204" stroke-width="2px"/><text class="caption" text-anchor="middle" pointer-events="none" x="0" y="5" font-size="10px" fill="#FFFFFF" font-family="Helvetica Neue, Helvetica, Arial, sans-serif"> ml:SplittedTrain…</text></g><g class="node" aria-label="graph-node27" transform="translate(445.50977458505736,-40.46777459405442)"><circle class="b-outline" cx="0" cy="0" r="40" fill="#8DCC93" stroke="#5db665" stroke-width="2px"/><text class="caption" text-anchor="middle" pointer-events="none" x="0" y="5" font-size="10px" fill="#2A2C34" font-family="Helvetica Neue, Helvetica, Arial, sans-serif"> ml:Performanc…</text></g><g class="node" aria-label="graph-node28" transform="translate(258.70871270875944,-198.14004771912093)"><circle class="b-outline" cx="0" cy="0" r="40" fill="#57C7E3" stroke="#23b3d7" stroke-width="2px"/><text class="caption" text-anchor="middle" pointer-events="none" x="0" y="5" font-size="10px" fill="#2A2C34" font-family="Helvetica Neue, Helvetica, Arial, sans-serif"> ml:TestModel1_1</text></g><g class="node" aria-label="graph-node29" transform="translate(-126.57322440924929,99.70079465104092)"><circle class="b-outline" cx="0" cy="0" r="40" fill="#57C7E3" stroke="#23b3d7" stroke-width="2px"/><text class="caption" text-anchor="middle" pointer-events="none" x="0" y="5" font-size="10px" fill="#2A2C34" font-family="Helvetica Neue, Helvetica, Arial, sans-serif"> ml:TrainX1_1</text></g><g class="node" aria-label="graph-node30" transform="translate(616.7785184096879,-44.422266183667276)"><circle class="b-outline" cx="0" cy="0" r="40" fill="#8DCC93" stroke="#5db665" stroke-width="2px"/><text class="caption" text-anchor="middle" pointer-events="none" x="0" y="5" font-size="10px" fill="#2A2C34" font-family="Helvetica Neue, Helvetica, Arial, sans-serif"> ml:CanvasTask1</text></g><g class="node" aria-label="graph-node31" transform="translate(444.9937671386033,-143.19763272840487)"><circle class="b-outline" cx="0" cy="0" r="40" fill="#D9C8AE" stroke="#c0a378" stroke-width="2px"/><text class="caption" text-anchor="middle" pointer-events="none" x="0" y="5" font-size="10px" fill="#2A2C34" font-family="Helvetica Neue, Helvetica, Arial, sans-serif"> ml:Performanc…</text></g><g class="node" aria-label="graph-node32" transform="translate(-507.91258608288956,115.99756977315019)"><circle class="b-outline" cx="0" cy="0" r="40" fill="#8DCC93" stroke="#5db665" stroke-width="2px"/><text class="caption" text-anchor="middle" pointer-events="none" x="0" y="5" font-size="10px" fill="#2A2C34" font-family="Helvetica Neue, Helvetica, Arial, sans-serif"> ml:MLPipeline</text></g><g class="node" aria-label="graph-node33" transform="translate(-776.0441379210328,-126.82390539326437)"><circle class="b-outline" cx="0" cy="0" r="40" fill="#604A0E" stroke="#423204" stroke-width="2px"/><text class="caption" text-anchor="middle" pointer-events="none" x="0" y="5" font-size="10px" fill="#FFFFFF" font-family="Helvetica Neue, Helvetica, Arial, sans-serif"> ml:feature_3</text></g><g class="node" aria-label="graph-node34" transform="translate(-772.4267856162303,-216.04479974018892)"><circle class="b-outline" cx="0" cy="0" r="40" fill="#604A0E" stroke="#423204" stroke-width="2px"/><text class="caption" text-anchor="middle" pointer-events="none" x="0" y="5" font-size="10px" fill="#FFFFFF" font-family="Helvetica Neue, Helvetica, Arial, sans-serif"> ml:feature_4</text></g><g class="node" aria-label="graph-node35" transform="translate(-770.1596035865108,-311.5539516271888)"><circle class="b-outline" cx="0" cy="0" r="40" fill="#604A0E" stroke="#423204" stroke-width="2px"/><text class="caption" text-anchor="middle" pointer-events="none" x="0" y="5" font-size="10px" fill="#FFFFFF" font-family="Helvetica Neue, Helvetica, Arial, sans-serif"> ml:feature_5</text></g><g class="node" aria-label="graph-node36" transform="translate(-770.6836454493572,77.97029173403848)"><circle class="b-outline" cx="0" cy="0" r="40" fill="#604A0E" stroke="#423204" stroke-width="2px"/><text class="caption" text-anchor="middle" pointer-events="none" x="0" y="5" font-size="10px" fill="#FFFFFF" font-family="Helvetica Neue, Helvetica, Arial, sans-serif"> ml:feature_1</text></g><g class="node" aria-label="graph-node37" transform="translate(-768.2581816718,-23.05647050925151)"><circle class="b-outline" cx="0" cy="0" r="40" fill="#604A0E" stroke="#423204" stroke-width="2px"/><text class="caption" text-anchor="middle" pointer-events="none" x="0" y="5" font-size="10px" fill="#FFFFFF" font-family="Helvetica Neue, Helvetica, Arial, sans-serif"> ml:feature_2</text></g><g class="node" aria-label="graph-node38" transform="translate(-228.84630432275014,77.22700596559235)"><circle class="b-outline" cx="0" cy="0" r="40" fill="#604A0E" stroke="#423204" stroke-width="2px"/><text class="caption" text-anchor="middle" pointer-events="none" x="0" y="5" font-size="10px" fill="#FFFFFF" font-family="Helvetica Neue, Helvetica, Arial, sans-serif"> ml:SplittedTrain…</text></g><g class="node" aria-label="graph-node39" transform="translate(-767.7919606985897,-405.329993454504)"><circle class="b-outline" cx="0" cy="0" r="40" fill="#604A0E" stroke="#423204" stroke-width="2px"/><text class="caption" text-anchor="middle" pointer-events="none" x="0" y="5" font-size="10px" fill="#FFFFFF" font-family="Helvetica Neue, Helvetica, Arial, sans-serif"> ml:label</text></g><g class="node" aria-label="graph-node40" transform="translate(-410.1763197059903,54.10703028231811)"><circle class="b-outline" cx="0" cy="0" r="40" fill="#604A0E" stroke="#423204" stroke-width="2px"/><text class="caption" text-anchor="middle" pointer-events="none" x="0" y="5" font-size="10px" fill="#FFFFFF" font-family="Helvetica Neue, Helvetica, Arial, sans-serif"> ml:Concatenat…</text></g><g class="node" aria-label="graph-node41" transform="translate(-177.04037025469034,-108.93295221723014)"><circle class="b-outline" cx="0" cy="0" r="40" fill="#604A0E" stroke="#423204" stroke-width="2px"/><text class="caption" text-anchor="middle" pointer-events="none" x="0" y="5" font-size="10px" fill="#FFFFFF" font-family="Helvetica Neue, Helvetica, Arial, sans-serif"> ml:SplittedTest…</text></g><g class="node" aria-label="graph-node42" transform="translate(59.874163339885456,-224.74042062214266)"><circle class="b-outline" cx="0" cy="0" r="40" fill="#57C7E3" stroke="#23b3d7" stroke-width="2px"/><text class="caption" text-anchor="middle" pointer-events="none" x="0" y="5" font-size="10px" fill="#2A2C34" font-family="Helvetica Neue, Helvetica, Arial, sans-serif"> ml:TestX1_1</text></g><g class="node" aria-label="graph-node43" transform="translate(-931.9241318065283,-49.07967621160556)"><circle class="b-outline" cx="0" cy="0" r="40" fill="#57C7E3" stroke="#23b3d7" stroke-width="2px"/><text class="caption" text-anchor="middle" pointer-events="none" x="0" y="5" font-size="10px" fill="#2A2C34" font-family="Helvetica Neue, Helvetica, Arial, sans-serif"> ds:Vector</text></g><g class="node" aria-label="graph-node44" transform="translate(353.8859816618924,76.69108215520384)"><circle class="b-outline" cx="0" cy="0" r="40" fill="#57C7E3" stroke="#23b3d7" stroke-width="2px"/><text class="caption" text-anchor="middle" pointer-events="none" x="0" y="5" font-size="10px" fill="#2A2C34" font-family="Helvetica Neue, Helvetica, Arial, sans-serif"> ml:TestPredicte…</text></g><g class="node" aria-label="graph-node45" transform="translate(-19.592854577491153,99.13533410614474)"><circle class="b-outline" cx="0" cy="0" r="40" fill="#57C7E3" stroke="#23b3d7" stroke-width="2px"/><text class="caption" text-anchor="middle" pointer-events="none" x="0" y="5" font-size="10px" fill="#2A2C34" font-family="Helvetica Neue, Helvetica, Arial, sans-serif"> ml:TrainRealY1…</text></g><g class="node" aria-label="graph-node46" transform="translate(619.2096872629227,-135.14366088418728)"><circle class="b-outline" cx="0" cy="0" r="40" fill="#D9C8AE" stroke="#c0a378" stroke-width="2px"/><text class="caption" text-anchor="middle" pointer-events="none" x="0" y="5" font-size="10px" fill="#2A2C34" font-family="Helvetica Neue, Helvetica, Arial, sans-serif"> ml:CanvasMeth…</text></g><g class="node" aria-label="graph-node47" transform="translate(-328.94174167305846,-62.68994004122837)"><circle class="b-outline" cx="0" cy="0" r="40" fill="#8DCC93" stroke="#5db665" stroke-width="2px"/><text class="caption" text-anchor="middle" pointer-events="none" x="0" y="5" font-size="10px" fill="#2A2C34" font-family="Helvetica Neue, Helvetica, Arial, sans-serif"> ml:DataSplitting1</text></g><g class="node" aria-label="graph-node48" transform="translate(770.8937664152463,72.97913176459923)"><circle class="b-outline" cx="0" cy="0" r="40" fill="#57C7E3" stroke="#23b3d7" stroke-width="2px"/><text class="caption" text-anchor="middle" pointer-events="none" x="0" y="5" font-size="10px" fill="#2A2C34" font-family="Helvetica Neue, Helvetica, Arial, sans-serif"> visu:Vector2_1</text></g><g class="node" aria-label="graph-node49" transform="translate(-502.7148874108466,-162.19303517671642)"><circle class="b-outline" cx="0" cy="0" r="40" fill="#D9C8AE" stroke="#c0a378" stroke-width="2px"/><text class="caption" text-anchor="middle" pointer-events="none" x="0" y="5" font-size="10px" fill="#2A2C34" font-family="Helvetica Neue, Helvetica, Arial, sans-serif"> ml:Concatenati…</text></g><g class="node" aria-label="graph-node50" transform="translate(42.25999399292334,-139.31247944976127)"><circle class="b-outline" cx="0" cy="0" r="40" fill="#D9C8AE" stroke="#c0a378" stroke-width="2px"/><text class="caption" text-anchor="middle" pointer-events="none" x="0" y="5" font-size="10px" fill="#2A2C34" font-family="Helvetica Neue, Helvetica, Arial, sans-serif"> ml:KNNTrain1</text></g><g class="node" aria-label="graph-node51" transform="translate(-936.265605342545,-265.5575367167962)"><circle class="b-outline" cx="0" cy="0" r="40" fill="#57C7E3" stroke="#23b3d7" stroke-width="2px"/><text class="caption" text-anchor="middle" pointer-events="none" x="0" y="5" font-size="10px" fill="#2A2C34" font-family="Helvetica Neue, Helvetica, Arial, sans-serif"> ds:TimeSeries</text></g><g class="node" aria-label="graph-node52" transform="translate(299.33133790595343,-122.36545883817661)"><circle class="b-outline" cx="0" cy="0" r="40" fill="#D9C8AE" stroke="#c0a378" stroke-width="2px"/><text class="caption" text-anchor="middle" pointer-events="none" x="0" y="5" font-size="10px" fill="#2A2C34" font-family="Helvetica Neue, Helvetica, Arial, sans-serif"> ml:KNNTest1</text></g><g class="node" aria-label="graph-node53" transform="translate(-221.06873335296157,-181.24150665068947)"><circle class="b-outline" cx="0" cy="0" r="40" fill="#604A0E" stroke="#423204" stroke-width="2px"/><text class="caption" text-anchor="middle" pointer-events="none" x="0" y="5" font-size="10px" fill="#FFFFFF" font-family="Helvetica Neue, Helvetica, Arial, sans-serif"> ml:SplittedTest…</text></g></g></svg>
