<svg xmlns="http://www.w3.org/2000/svg" width="1002.306640625" height="574.170166015625" viewBox="-1727.6302490234375 -316.7014465332031 1002.306640625 574.170166015625"><title>Neo4j Graph Visualization</title><desc>Created using Neo4j (http://www.neo4j.com/)</desc><g class="layer relationships"><g class="relationship" transform="translate(-1312.1227844766527 213.46871455154826) rotate(269.51017262267305)"><path class="b-outline" fill="#A5ABB6" stroke="none" d="M 40 0.5 L 49.51926642525808 0.5 L 49.51926642525808 -0.5 L 40 -0.5 Z M 119.10911017525808 0.5 L 128.62837660051616 0.5 L 128.62837660051616 3.5 L 135.62837660051616 0 L 128.62837660051616 -3.5 L 128.62837660051616 -0.5 L 119.10911017525808 -0.5 Z"/><text text-anchor="middle" pointer-events="none" font-size="8px" fill="#000000" x="84.31418830025808" y="3" transform="rotate(180 84.31418830025808 0)" font-family="Helvetica Neue, Helvetica, Arial, sans-serif">ds__hasStartTask</text></g><g class="relationship" transform="translate(-1313.6242308294425 37.846755998005094) rotate(361.2699766350424)"><path class="b-outline" fill="#A5ABB6" stroke="none" d="M 40 0.5 L 52.63780121103761 0.5 L 52.63780121103761 -0.5 L 40 -0.5 Z M 121.78233246103761 0.5 L 134.42013367207522 0.5 L 134.42013367207522 3.5 L 141.42013367207522 0 L 134.42013367207522 -3.5 L 134.42013367207522 -0.5 L 121.78233246103761 -0.5 Z"/><text text-anchor="middle" pointer-events="none" font-size="8px" fill="#000000" x="87.21006683603761" y="3" font-family="Helvetica Neue, Helvetica, Arial, sans-serif">ds__hasNextTask</text></g><g class="relationship" transform="translate(-1313.6242308294425 37.846755998005094) rotate(232.48470102010197)"><path class="b-outline" fill="#A5ABB6" stroke="none" d="M 40 0.5 L 55.29437816270075 0.5 L 55.29437816270075 -0.5 L 40 -0.5 Z M 109.33344066270075 0.5 L 124.6278188254015 0.5 L 124.6278188254015 3.5 L 131.6278188254015 0 L 124.6278188254015 -3.5 L 124.6278188254015 -0.5 L 109.33344066270075 -0.5 Z"/><text text-anchor="middle" pointer-events="none" font-size="8px" fill="#000000" x="82.31390941270075" y="3" transform="rotate(180 82.31390941270075 0)" font-family="Helvetica Neue, Helvetica, Arial, sans-serif">ds__hasInput</text></g><g class="relationship" transform="translate(-1313.6242308294425 37.846755998005094) rotate(269.5303020405779)"><path class="b-outline" fill="#A5ABB6" stroke="none" d="M 40 0.5 L 45.20904116881254 0.5 L 45.20904116881254 -0.5 L 40 -0.5 Z M 45.20904116881254 0.5 L 50.41808233762508 0.5 L 50.41808233762508 3.5 L 57.41808233762508 0 L 50.41808233762508 -3.5 L 50.41808233762508 -0.5 L 45.20904116881254 -0.5 Z"/><text text-anchor="middle" pointer-events="none" font-size="8px" fill="#000000" x="45.20904116881254" y="3" transform="rotate(180 45.20904116881254 0)" font-family="Helvetica Neue, Helvetica, Arial, sans-serif"/></g><g class="relationship" transform="translate(-1313.6242308294425 37.846755998005094) rotate(400.3062720124111)"><path class="b-outline" fill="#A5ABB6" stroke="none" d="M 40 0.5 L 72.91342731376712 0.5 L 72.91342731376712 -0.5 L 40 -0.5 Z M 133.1751460637671 0.5 L 166.08857337753423 0.5 L 166.08857337753423 3.5 L 173.08857337753423 0 L 166.08857337753423 -3.5 L 166.08857337753423 -0.5 L 133.1751460637671 -0.5 Z"/><text text-anchor="middle" pointer-events="none" font-size="8px" fill="#000000" x="103.04428668876712" y="3" font-family="Helvetica Neue, Helvetica, Arial, sans-serif">ds__hasOutput</text></g><g class="relationship" transform="translate(-952.029126625188 40.885211739502864) rotate(268.61358086334087)"><path class="b-outline" fill="#A5ABB6" stroke="none" d="M 40 0.5 L 43.44596138631464 0.5 L 43.44596138631464 -0.5 L 40 -0.5 Z M 43.44596138631464 0.5 L 46.891922772629286 0.5 L 46.891922772629286 3.5 L 53.891922772629286 0 L 46.891922772629286 -3.5 L 46.891922772629286 -0.5 L 43.44596138631464 -0.5 Z"/><text text-anchor="middle" pointer-events="none" font-size="8px" fill="#000000" x="43.44596138631464" y="3" transform="rotate(180 43.44596138631464 0)" font-family="Helvetica Neue, Helvetica, Arial, sans-serif"/></g><g class="relationship" transform="translate(-1132.2486611304396 41.8676536534782) rotate(359.6876630612894)"><path class="b-outline" fill="#A5ABB6" stroke="none" d="M 40 0.5 L 52.038840529296934 0.5 L 52.038840529296934 -0.5 L 40 -0.5 Z M 121.18337177929693 0.5 L 133.22221230859387 0.5 L 133.22221230859387 3.5 L 140.22221230859387 0 L 133.22221230859387 -3.5 L 133.22221230859387 -0.5 L 121.18337177929693 -0.5 Z"/><text text-anchor="middle" pointer-events="none" font-size="8px" fill="#000000" x="86.61110615429693" y="3" font-family="Helvetica Neue, Helvetica, Arial, sans-serif">ds__hasNextTask</text></g><g class="relationship" transform="translate(-952.029126625188 40.885211739502864) rotate(360.806367391962)"><path class="b-outline" fill="#A5ABB6" stroke="none" d="M 40 0.5 L 53.28953941978601 0.5 L 53.28953941978601 -0.5 L 40 -0.5 Z M 122.43407066978601 0.5 L 135.72361008957202 0.5 L 135.72361008957202 3.5 L 142.72361008957202 0 L 135.72361008957202 -3.5 L 135.72361008957202 -0.5 L 122.43407066978601 -0.5 Z"/><text text-anchor="middle" pointer-events="none" font-size="8px" fill="#000000" x="87.86180504478601" y="3" font-family="Helvetica Neue, Helvetica, Arial, sans-serif">ds__hasNextTask</text></g><g class="relationship" transform="translate(-952.029126625188 40.885211739502864) rotate(230.05243621564864)"><path class="b-outline" fill="#A5ABB6" stroke="none" d="M 40 0.5 L 174.00265781495358 0.5 L 174.00265781495358 -0.5 L 40 -0.5 Z M 228.04172031495358 0.5 L 362.04437812990716 0.5 L 362.04437812990716 3.5 L 369.04437812990716 0 L 362.04437812990716 -3.5 L 362.04437812990716 -0.5 L 228.04172031495358 -0.5 Z"/><text text-anchor="middle" pointer-events="none" font-size="8px" fill="#000000" x="201.02218906495358" y="3" transform="rotate(180 201.02218906495358 0)" font-family="Helvetica Neue, Helvetica, Arial, sans-serif">ds__hasInput</text></g><g class="relationship" transform="translate(-769.3236123508337 43.45673617253044) rotate(514.8139219440245)"><path class="b-outline" fill="#A5ABB6" stroke="none" d="M 40 0.5 L 125.54966670805058 0.5 L 125.54966670805058 -0.5 L 40 -0.5 Z M 179.58872920805058 0.5 L 265.13839591610116 0.5 L 265.13839591610116 3.5 L 272.13839591610116 0 L 265.13839591610116 -3.5 L 265.13839591610116 -0.5 L 179.58872920805058 -0.5 Z"/><text text-anchor="middle" pointer-events="none" font-size="8px" fill="#000000" x="152.56919795805058" y="3" transform="rotate(180 152.56919795805058 0)" font-family="Helvetica Neue, Helvetica, Arial, sans-serif">ds__hasInput</text></g><g class="relationship" transform="translate(-769.3236123508337 43.45673617253044) rotate(269.9045221628237)"><path class="b-outline" fill="#A5ABB6" stroke="none" d="M 40 0.5 L 43.9894228579406 0.5 L 43.9894228579406 -0.5 L 40 -0.5 Z M 43.9894228579406 0.5 L 47.97884571588121 0.5 L 47.97884571588121 3.5 L 54.97884571588121 0 L 47.97884571588121 -3.5 L 47.97884571588121 -0.5 L 43.9894228579406 -0.5 Z"/><text text-anchor="middle" pointer-events="none" font-size="8px" fill="#000000" x="43.9894228579406" y="3" transform="rotate(180 43.9894228579406 0)" font-family="Helvetica Neue, Helvetica, Arial, sans-serif"/></g><g class="relationship" transform="translate(-1514.5777502864294 -98.65381790125437) rotate(194.12367016765347)"><path class="b-outline" fill="#A5ABB6" stroke="none" d="M 40 0.5 L 40.850345409033906 0.5 L 40.850345409033906 -0.5 L 40 -0.5 Z M 126.4519079090339 0.5 L 127.30225331806781 0.5 L 127.30225331806781 3.5 L 134.3022533180678 0 L 127.30225331806781 -3.5 L 127.30225331806781 -0.5 L 126.4519079090339 -0.5 Z"/><text text-anchor="middle" pointer-events="none" font-size="8px" fill="#000000" x="83.6511266590339" y="3" transform="rotate(180 83.6511266590339 0)" font-family="Helvetica Neue, Helvetica, Arial, sans-serif">ds__hasDataStructure</text></g><g class="relationship" transform="translate(-1132.2486611304396 41.8676536534782) rotate(269.0261662383131)"><path class="b-outline" fill="#A5ABB6" stroke="none" d="M 40 0.5 L 45.31280674275829 0.5 L 45.31280674275829 -0.5 L 40 -0.5 Z M 45.31280674275829 0.5 L 50.62561348551658 0.5 L 50.62561348551658 3.5 L 57.62561348551658 0 L 50.62561348551658 -3.5 L 50.62561348551658 -0.5 L 45.31280674275829 -0.5 Z"/><text text-anchor="middle" pointer-events="none" font-size="8px" fill="#000000" x="45.31280674275829" y="3" transform="rotate(180 45.31280674275829 0)" font-family="Helvetica Neue, Helvetica, Arial, sans-serif"/></g><g class="relationship" transform="translate(-1514.5777502864294 -98.65381790125437) rotate(520.4985320033438)"><path class="b-outline" fill="#A5ABB6" stroke="none" d="M 40 0.5 L 40.92425263539883 0.5 L 40.92425263539883 -0.5 L 40 -0.5 Z M 131.41644013539883 0.5 L 132.34069277079766 0.5 L 132.34069277079766 3.5 L 139.34069277079766 0 L 132.34069277079766 -3.5 L 132.34069277079766 -0.5 L 131.41644013539883 -0.5 Z"/><text text-anchor="middle" pointer-events="none" font-size="8px" fill="#000000" x="86.17034638539883" y="3" transform="rotate(180 86.17034638539883 0)" font-family="Helvetica Neue, Helvetica, Arial, sans-serif">ds__hasDataSemantics</text></g><g class="relationship" transform="translate(-1214.6709050343152 -272.7014581203198) rotate(509.87173474182566)"><path class="b-outline" fill="#A5ABB6" stroke="none" d="M 40 0.5 L 133.2976928747117 0.5 L 133.2976928747117 -0.5 L 40 -0.5 Z M 206.4539428747117 0.5 L 299.7516357494234 0.5 L 299.7516357494234 3.5 L 306.7516357494234 0 L 299.7516357494234 -3.5 L 299.7516357494234 -0.5 L 206.4539428747117 -0.5 Z"/><text text-anchor="middle" pointer-events="none" font-size="8px" fill="#000000" x="169.8758178747117" y="3" transform="rotate(180 169.8758178747117 0)" font-family="Helvetica Neue, Helvetica, Arial, sans-serif">ds__hasReference</text></g><g class="relationship" transform="translate(-1418.1409808641156 -98.28684439864384) rotate(180.21802816011223)"><path class="b-outline" fill="#A5ABB6" stroke="none" d="M 40 0.5 L 44.718733823494716 0.5 L 44.718733823494716 -0.5 L 40 -0.5 Z M 44.718733823494716 0.5 L 49.43746764698943 0.5 L 49.43746764698943 3.5 L 56.43746764698943 0 L 49.43746764698943 -3.5 L 49.43746764698943 -0.5 L 44.718733823494716 -0.5 Z"/><text text-anchor="middle" pointer-events="none" font-size="8px" fill="#000000" x="44.718733823494716" y="3" transform="rotate(180 44.718733823494716 0)" font-family="Helvetica Neue, Helvetica, Arial, sans-serif"/></g><g class="relationship" transform="translate(-1051.7871617949115 176.29017112220612) rotate(180.347287021307)"><path class="b-outline" fill="#A5ABB6" stroke="none" d="M 40 0.5 L 46.169037820224354 0.5 L 46.169037820224354 -0.5 L 40 -0.5 Z M 46.169037820224354 0.5 L 52.33807564044871 0.5 L 52.33807564044871 3.5 L 59.33807564044871 0 L 52.33807564044871 -3.5 L 52.33807564044871 -0.5 L 46.169037820224354 -0.5 Z"/><text text-anchor="middle" pointer-events="none" font-size="8px" fill="#000000" x="46.169037820224354" y="3" transform="rotate(180 46.169037820224354 0)" font-family="Helvetica Neue, Helvetica, Arial, sans-serif"/></g></g><g class="layer nodes"><g class="node" aria-label="graph-node2" transform="translate(-1313.6242308294425,37.846755998005094)" style="touch-action: none; -webkit-tap-highlight-color: rgba(0, 0, 0, 0);"><circle class="b-outline" cx="0" cy="0" r="40" fill="#8DCC93" stroke="#5db665" stroke-width="2px"/><text class="caption" text-anchor="middle" pointer-events="none" x="0" y="5" font-size="10px" fill="#2A2C34" font-family="Helvetica Neue, Helvetica, Arial, sans-serif"> stats:Normaliza…</text></g><g class="node" aria-label="graph-node3" transform="translate(-952.029126625188,40.885211739502864)" style="touch-action: none; -webkit-tap-highlight-color: rgba(0, 0, 0, 0);"><circle class="b-outline" cx="0" cy="0" r="40" fill="#8DCC93" stroke="#5db665" stroke-width="2px"/><text class="caption" text-anchor="middle" pointer-events="none" x="0" y="5" font-size="10px" fill="#2A2C34" font-family="Helvetica Neue, Helvetica, Arial, sans-serif"> stats:PlotTask1</text></g><g class="node" aria-label="graph-node4" transform="translate(-769.3236123508337,43.45673617253044)" style="touch-action: none; -webkit-tap-highlight-color: rgba(0, 0, 0, 0);"><circle class="b-outline" cx="0" cy="0" r="40" fill="#8DCC93" stroke="#5db665" stroke-width="2px"/><text class="caption" text-anchor="middle" pointer-events="none" x="0" y="5" font-size="10px" fill="#2A2C34" font-family="Helvetica Neue, Helvetica, Arial, sans-serif"> stats:PlotTask2</text></g><g class="node" aria-label="graph-node5" transform="translate(-1683.6110712869101,-141.18629846968946)" style="touch-action: none; -webkit-tap-highlight-color: rgba(0, 0, 0, 0);"><circle class="b-outline" cx="0" cy="0" r="40" fill="#57C7E3" stroke="#23b3d7" stroke-width="2px"/><text class="caption" text-anchor="middle" pointer-events="none" x="0" y="5" font-size="10px" fill="#2A2C34" font-family="Helvetica Neue, Helvetica, Arial, sans-serif"> ds:Vector</text></g><g class="node" aria-label="graph-node6" transform="translate(-1314.4228334903928,-59.56805293847141)" style="touch-action: none; -webkit-tap-highlight-color: rgba(0, 0, 0, 0);"><circle class="b-outline" cx="0" cy="0" r="40" fill="#D9C8AE" stroke="#c0a378" stroke-width="2px"/><text class="caption" text-anchor="middle" pointer-events="none" x="0" y="5" font-size="10px" fill="#2A2C34" font-family="Helvetica Neue, Helvetica, Arial, sans-serif"> stats:Normaliza…</text></g><g class="node" aria-label="graph-node7" transform="translate(-1312.1227844766527,213.46871455154826)" style="touch-action: none; -webkit-tap-highlight-color: rgba(0, 0, 0, 0);"><circle class="b-outline" cx="0" cy="0" r="40" fill="#57C7E3" stroke="#23b3d7" stroke-width="2px"/><text class="caption" text-anchor="middle" pointer-events="none" x="0" y="5" font-size="10px" fill="#2A2C34" font-family="Helvetica Neue, Helvetica, Arial, sans-serif"> stats:StatsPipel…</text></g><g class="node" aria-label="graph-node8" transform="translate(-1133.9078852803036,-55.743858903412274)" style="touch-action: none; -webkit-tap-highlight-color: rgba(0, 0, 0, 0);"><circle class="b-outline" cx="0" cy="0" r="40" fill="#D9C8AE" stroke="#c0a378" stroke-width="2px"/><text class="caption" text-anchor="middle" pointer-events="none" x="0" y="5" font-size="10px" fill="#2A2C34" font-family="Helvetica Neue, Helvetica, Arial, sans-serif"> stats:CanvasM…</text></g><g class="node" aria-label="graph-node9" transform="translate(-954.3008621129143,-52.9792244427658)" style="touch-action: none; -webkit-tap-highlight-color: rgba(0, 0, 0, 0);"><circle class="b-outline" cx="0" cy="0" r="40" fill="#D9C8AE" stroke="#c0a378" stroke-width="2px"/><text class="caption" text-anchor="middle" pointer-events="none" x="0" y="5" font-size="10px" fill="#2A2C34" font-family="Helvetica Neue, Helvetica, Arial, sans-serif"> stats:Scatterplo…</text></g><g class="node" aria-label="graph-node10" transform="translate(-1514.5777502864294,-98.65381790125437)" style="touch-action: none; -webkit-tap-highlight-color: rgba(0, 0, 0, 0);"><circle class="b-outline" cx="0" cy="0" r="40" fill="#604A0E" stroke="#423204" stroke-width="2px"/><text class="caption" text-anchor="middle" pointer-events="none" x="0" y="5" font-size="10px" fill="#FFFFFF" font-family="Helvetica Neue, Helvetica, Arial, sans-serif"> stats:feature_1</text></g><g class="node" aria-label="graph-node11" transform="translate(-1418.1409808641156,-98.28684439864384)" style="touch-action: none; -webkit-tap-highlight-color: rgba(0, 0, 0, 0);"><circle class="b-outline" cx="0" cy="0" r="40" fill="#57C7E3" stroke="#23b3d7" stroke-width="2px"/><text class="caption" text-anchor="middle" pointer-events="none" x="0" y="5" font-size="10px" fill="#2A2C34" font-family="Helvetica Neue, Helvetica, Arial, sans-serif"> stats:Normaliza…</text></g><g class="node" aria-label="graph-node12" transform="translate(-1132.2486611304396,41.8676536534782)" style="touch-action: none; -webkit-tap-highlight-color: rgba(0, 0, 0, 0);"><circle class="b-outline" cx="0" cy="0" r="40" fill="#8DCC93" stroke="#5db665" stroke-width="2px"/><text class="caption" text-anchor="middle" pointer-events="none" x="0" y="5" font-size="10px" fill="#2A2C34" font-family="Helvetica Neue, Helvetica, Arial, sans-serif"> stats:CanvasTa…</text></g><g class="node" aria-label="graph-node13" transform="translate(-1214.6709050343152,-272.7014581203198)" style="touch-action: none; -webkit-tap-highlight-color: rgba(0, 0, 0, 0);"><circle class="b-outline" cx="0" cy="0" r="40" fill="#57C7E3" stroke="#23b3d7" stroke-width="2px"/><text class="caption" text-anchor="middle" pointer-events="none" x="0" y="5" font-size="10px" fill="#2A2C34" font-family="Helvetica Neue, Helvetica, Arial, sans-serif"> visu:Vector1_1</text></g><g class="node" aria-label="graph-node14" transform="translate(-1051.7871617949115,176.29017112220612)" style="touch-action: none; -webkit-tap-highlight-color: rgba(0, 0, 0, 0);"><circle class="b-outline" cx="0" cy="0" r="40" fill="#57C7E3" stroke="#23b3d7" stroke-width="2px"/><text class="caption" text-anchor="middle" pointer-events="none" x="0" y="5" font-size="10px" fill="#2A2C34" font-family="Helvetica Neue, Helvetica, Arial, sans-serif"> visu:Vector2_1</text></g><g class="node" aria-label="graph-node15" transform="translate(-1151.1234126312136,175.68805673540723)" style="touch-action: none; -webkit-tap-highlight-color: rgba(0, 0, 0, 0);"><circle class="b-outline" cx="0" cy="0" r="40" fill="#604A0E" stroke="#423204" stroke-width="2px"/><text class="caption" text-anchor="middle" pointer-events="none" x="0" y="5" font-size="10px" fill="#FFFFFF" font-family="Helvetica Neue, Helvetica, Arial, sans-serif"> stats:Normaliza…</text></g><g class="node" aria-label="graph-node16" transform="translate(-769.4818852750618,-51.521977670112335)" style="touch-action: none; -webkit-tap-highlight-color: rgba(0, 0, 0, 0);"><circle class="b-outline" cx="0" cy="0" r="40" fill="#D9C8AE" stroke="#c0a378" stroke-width="2px"/><text class="caption" text-anchor="middle" pointer-events="none" x="0" y="5" font-size="10px" fill="#2A2C34" font-family="Helvetica Neue, Helvetica, Arial, sans-serif"> stats:Scatterplo…</text></g><g class="node" aria-label="graph-node17" transform="translate(-1683.6301944503625,-38.78433313889906)" style="touch-action: none; -webkit-tap-highlight-color: rgba(0, 0, 0, 0);"><circle class="b-outline" cx="0" cy="0" r="40" fill="#57C7E3" stroke="#23b3d7" stroke-width="2px"/><text class="caption" text-anchor="middle" pointer-events="none" x="0" y="5" font-size="10px" fill="#2A2C34" font-family="Helvetica Neue, Helvetica, Arial, sans-serif"> ds:TimeSeries</text></g></g></svg>
