<svg xmlns="http://www.w3.org/2000/svg" width="596.1170654296875" height="477.89117431640625" viewBox="-717.7416381835938 -360.2569580078125 596.1170654296875 477.89117431640625"><title>Neo4j Graph Visualization</title><desc>Created using Neo4j (http://www.neo4j.com/)</desc><g class="layer relationships"><g class="relationship" transform="translate(-384.5526452645647 -316.2569630937682) rotate(490.7217351565794)"><path class="b-outline" fill="#A5ABB6" stroke="none" d="M 40 0.5 L 47.522894727499505 0.5 L 47.522894727499505 -0.5 L 40 -0.5 Z M 120.6791447274995 0.5 L 128.202039454999 0.5 L 128.202039454999 3.5 L 135.202039454999 0 L 128.202039454999 -3.5 L 128.202039454999 -0.5 L 120.6791447274995 -0.5 Z"/><text text-anchor="middle" pointer-events="none" font-size="8px" fill="#000000" x="84.1010197274995" y="3" transform="rotate(180 84.1010197274995 0)" font-family="Helvetica Neue, Helvetica, Arial, sans-serif">ds__hasReference</text></g><g class="relationship" transform="translate(-165.62454874797965 -98.25753157893729) rotate(224.87822121142494)"><path class="b-outline" fill="#A5ABB6" stroke="none" d="M 40 0.5 L 123.95802665499525 0.5 L 123.95802665499525 -0.5 L 40 -0.5 Z M 177.99708915499525 0.5 L 261.9551158099905 0.5 L 261.9551158099905 3.5 L 268.9551158099905 0 L 261.9551158099905 -3.5 L 261.9551158099905 -0.5 L 177.99708915499525 -0.5 Z"/><text text-anchor="middle" pointer-events="none" font-size="8px" fill="#000000" x="150.97755790499525" y="3" transform="rotate(180 150.97755790499525 0)" font-family="Helvetica Neue, Helvetica, Arial, sans-serif">ds__hasInput</text></g><g class="relationship" transform="translate(-498.85199512705697 -183.47363111944765) rotate(517.6085270818003)"><path class="b-outline" fill="#A5ABB6" stroke="none" d="M 40 0.5 L 48.27479228826897 0.5 L 48.27479228826897 -0.5 L 40 -0.5 Z M 133.87635478826897 0.5 L 142.15114707653794 0.5 L 142.15114707653794 3.5 L 149.15114707653794 0 L 142.15114707653794 -3.5 L 142.15114707653794 -0.5 L 133.87635478826897 -0.5 Z"/><text text-anchor="middle" pointer-events="none" font-size="8px" fill="#000000" x="91.07557353826897" y="3" transform="rotate(180 91.07557353826897 0)" font-family="Helvetica Neue, Helvetica, Arial, sans-serif">ds__hasDataStructure</text></g><g class="relationship" transform="translate(-165.62454874797965 -98.25753157893729) rotate(269.69456670705085)"><path class="b-outline" fill="#A5ABB6" stroke="none" d="M 40 0.5 L 45.74826704866976 0.5 L 45.74826704866976 -0.5 L 40 -0.5 Z M 45.74826704866976 0.5 L 51.49653409733952 0.5 L 51.49653409733952 3.5 L 58.49653409733952 0 L 51.49653409733952 -3.5 L 51.49653409733952 -0.5 L 45.74826704866976 -0.5 Z"/><text text-anchor="middle" pointer-events="none" font-size="8px" fill="#000000" x="45.74826704866976" y="3" transform="rotate(180 45.74826704866976 0)" font-family="Helvetica Neue, Helvetica, Arial, sans-serif"/></g><g class="relationship" transform="translate(-348.9170012378728 -97.58809631225017) rotate(359.7907407295056)"><path class="b-outline" fill="#A5ABB6" stroke="none" d="M 40 0.5 L 53.57457185908346 0.5 L 53.57457185908346 -0.5 L 40 -0.5 Z M 122.71910310908346 0.5 L 136.29367496816693 0.5 L 136.29367496816693 3.5 L 143.29367496816693 0 L 136.29367496816693 -3.5 L 136.29367496816693 -0.5 L 122.71910310908346 -0.5 Z"/><text text-anchor="middle" pointer-events="none" font-size="8px" fill="#000000" x="88.14683748408346" y="3" font-family="Helvetica Neue, Helvetica, Arial, sans-serif">ds__hasNextTask</text></g><g class="relationship" transform="translate(-348.9170012378728 -97.58809631225017) rotate(269.4923046050606)"><path class="b-outline" fill="#A5ABB6" stroke="none" d="M 40 0.5 L 45.0571706891488 0.5 L 45.0571706891488 -0.5 L 40 -0.5 Z M 45.0571706891488 0.5 L 50.114341378297595 0.5 L 50.114341378297595 3.5 L 57.114341378297595 0 L 50.114341378297595 -3.5 L 50.114341378297595 -0.5 L 45.0571706891488 -0.5 Z"/><text text-anchor="middle" pointer-events="none" font-size="8px" fill="#000000" x="45.0571706891488" y="3" transform="rotate(180 45.0571706891488 0)" font-family="Helvetica Neue, Helvetica, Arial, sans-serif"/></g><g class="relationship" transform="translate(-498.85199512705697 -183.47363111944765) rotate(195.30280088239)"><path class="b-outline" fill="#A5ABB6" stroke="none" d="M 40 0.5 L 41.644297695750566 0.5 L 41.644297695750566 -0.5 L 40 -0.5 Z M 132.13648519575057 0.5 L 133.78078289150113 0.5 L 133.78078289150113 3.5 L 140.78078289150113 0 L 133.78078289150113 -3.5 L 133.78078289150113 -0.5 L 132.13648519575057 -0.5 Z"/><text text-anchor="middle" pointer-events="none" font-size="8px" fill="#000000" x="86.89039144575057" y="3" transform="rotate(180 86.89039144575057 0)" font-family="Helvetica Neue, Helvetica, Arial, sans-serif">ds__hasDataSemantics</text></g><g class="relationship" transform="translate(-347.98884322907224 73.63423403456727) rotate(269.68941541890797)"><path class="b-outline" fill="#A5ABB6" stroke="none" d="M 40 0.5 L 47.31750112348192 0.5 L 47.31750112348192 -0.5 L 40 -0.5 Z M 116.90734487348192 0.5 L 124.22484599696384 0.5 L 124.22484599696384 3.5 L 131.22484599696384 0 L 124.22484599696384 -3.5 L 124.22484599696384 -0.5 L 116.90734487348192 -0.5 Z"/><text text-anchor="middle" pointer-events="none" font-size="8px" fill="#000000" x="82.11242299848192" y="3" transform="rotate(180 82.11242299848192 0)" font-family="Helvetica Neue, Helvetica, Arial, sans-serif">ds__hasStartTask</text></g></g><g class="layer nodes"><g class="node" aria-label="graph-node2" transform="translate(-384.5526452645647,-316.2569630937682)" style="touch-action: none; -webkit-tap-highlight-color: rgba(0, 0, 0, 0);"><circle class="b-outline" cx="0" cy="0" r="40" fill="#57C7E3" stroke="#23b3d7" stroke-width="2px"/><text class="caption" text-anchor="middle" pointer-events="none" x="0" y="5" font-size="10px" fill="#2A2C34" font-family="Helvetica Neue, Helvetica, Arial, sans-serif"> visu:Vector1_1</text></g><g class="node" aria-label="graph-node3" transform="translate(-673.7416633111541,-111.41975958691654)" style="touch-action: none; -webkit-tap-highlight-color: rgba(0, 0, 0, 0);"><circle class="b-outline" cx="0" cy="0" r="40" fill="#57C7E3" stroke="#23b3d7" stroke-width="2px"/><text class="caption" text-anchor="middle" pointer-events="none" x="0" y="5" font-size="10px" fill="#2A2C34" font-family="Helvetica Neue, Helvetica, Arial, sans-serif"> ds:Vector</text></g><g class="node" aria-label="graph-node4" transform="translate(-165.62454874797965,-98.25753157893729)" style="touch-action: none; -webkit-tap-highlight-color: rgba(0, 0, 0, 0);"><circle class="b-outline" cx="0" cy="0" r="40" fill="#8DCC93" stroke="#5db665" stroke-width="2px"/><text class="caption" text-anchor="middle" pointer-events="none" x="0" y="5" font-size="10px" fill="#2A2C34" font-family="Helvetica Neue, Helvetica, Arial, sans-serif"> visu:PlotTask1</text></g><g class="node" aria-label="graph-node5" transform="translate(-166.14961322084048,-196.75266616175668)" style="touch-action: none; -webkit-tap-highlight-color: rgba(0, 0, 0, 0);"><circle class="b-outline" cx="0" cy="0" r="40" fill="#D9C8AE" stroke="#c0a378" stroke-width="2px"/><text class="caption" text-anchor="middle" pointer-events="none" x="0" y="5" font-size="10px" fill="#2A2C34" font-family="Helvetica Neue, Helvetica, Arial, sans-serif"> visu:LineplotMe…</text></g><g class="node" aria-label="graph-node6" transform="translate(-349.7775159061197,-194.69862517419313)" style="touch-action: none; -webkit-tap-highlight-color: rgba(0, 0, 0, 0);"><circle class="b-outline" cx="0" cy="0" r="40" fill="#D9C8AE" stroke="#c0a378" stroke-width="2px"/><text class="caption" text-anchor="middle" pointer-events="none" x="0" y="5" font-size="10px" fill="#2A2C34" font-family="Helvetica Neue, Helvetica, Arial, sans-serif"> visu:CanvasMe…</text></g><g class="node" aria-label="graph-node7" transform="translate(-673.2231082196704,-231.18533179870542)" style="touch-action: none; -webkit-tap-highlight-color: rgba(0, 0, 0, 0);"><circle class="b-outline" cx="0" cy="0" r="40" fill="#57C7E3" stroke="#23b3d7" stroke-width="2px"/><text class="caption" text-anchor="middle" pointer-events="none" x="0" y="5" font-size="10px" fill="#2A2C34" font-family="Helvetica Neue, Helvetica, Arial, sans-serif"> ds:TimeSeries</text></g><g class="node" aria-label="graph-node8" transform="translate(-348.9170012378728,-97.58809631225017)" style="touch-action: none; -webkit-tap-highlight-color: rgba(0, 0, 0, 0);"><circle class="b-outline" cx="0" cy="0" r="40" fill="#8DCC93" stroke="#5db665" stroke-width="2px"/><text class="caption" text-anchor="middle" pointer-events="none" x="0" y="5" font-size="10px" fill="#2A2C34" font-family="Helvetica Neue, Helvetica, Arial, sans-serif"> visu:CanvasTa…</text></g><g class="node" aria-label="graph-node9" transform="translate(-347.98884322907224,73.63423403456727)" style="touch-action: none; -webkit-tap-highlight-color: rgba(0, 0, 0, 0);"><circle class="b-outline" cx="0" cy="0" r="40" fill="#8DCC93" stroke="#5db665" stroke-width="2px"/><text class="caption" text-anchor="middle" pointer-events="none" x="0" y="5" font-size="10px" fill="#2A2C34" font-family="Helvetica Neue, Helvetica, Arial, sans-serif"> visu:VisuPipeline</text></g><g class="node" aria-label="graph-node10" transform="translate(-498.85199512705697,-183.47363111944765)" style="touch-action: none; -webkit-tap-highlight-color: rgba(0, 0, 0, 0);"><circle class="b-outline" cx="0" cy="0" r="40" fill="#604A0E" stroke="#423204" stroke-width="2px"/><text class="caption" text-anchor="middle" pointer-events="none" x="0" y="5" font-size="10px" fill="#FFFFFF" font-family="Helvetica Neue, Helvetica, Arial, sans-serif"> visu:feature_1</text></g></g></svg>
